<svg width="160" height="33" viewBox="0 0 160 33" fill="none" xmlns="http://www.w3.org/2000/svg">
<g clip-path="url(#clip0_9806_900)">
<path d="M154.511 6.35156L149.052 12.4696V6.35156H145.102V21.796H149.052V15.2936L154.896 21.796H159.999L152.812 13.7038L159.479 6.35156H154.511Z" fill="white"/>
<path d="M138.137 12.1117H132.677V6.35156H128.725V21.796H132.677V15.7065H138.137V21.796H142.087V6.35156H138.137V12.1117Z" fill="white"/>
<mask id="mask0_9806_900" style="mask-type:luminance" maskUnits="userSpaceOnUse" x="0" y="0" width="160" height="33">
<path d="M160 0H0V32.1493H160V0Z" fill="white"/>
</mask>
<g mask="url(#mask0_9806_900)">
<path d="M23.4573 14.7183C23.3629 17.5994 22.9917 18.1748 21.3711 18.1748V21.796H21.975C26.0134 21.796 26.9841 19.7098 27.1334 15.074L27.2981 9.94421H31.084V21.796H35.0346V6.35156H23.7318L23.4573 14.7183Z" fill="white"/>
<path d="M44.8559 11.0422H42.0033V6.35156H38.0527V21.796H44.9108C49.2194 21.796 50.7544 18.9983 50.7544 16.3631C50.7544 12.9615 48.6133 11.04 44.8559 11.04M44.5551 18.3922H42.0033V14.468H44.5551C45.9276 14.468 46.7489 15.0719 46.7489 16.3609C46.7489 17.7598 45.9539 18.3922 44.5551 18.3922Z" fill="white"/>
<path d="M63.62 5.9935V0.259766H59.6694V5.9935C55.1435 6.3778 52.0977 9.58834 52.0977 14.0594C52.0977 18.5304 55.1435 21.7695 59.6694 22.1538V27.971H63.62V22.1538C68.146 21.7981 71.1918 18.559 71.1918 14.0594C71.1918 9.55979 68.146 6.34925 63.62 5.9935ZM59.6694 18.4228C57.4756 18.1198 56.1031 16.475 56.1031 14.0616C56.1031 11.6482 57.4756 10.0012 59.6694 9.70033V18.425V18.4228ZM63.62 18.4228V9.69814C65.8138 9.99899 67.1863 11.646 67.1863 14.0594C67.1863 16.4728 65.8138 18.1198 63.62 18.4206" fill="white"/>
<path d="M86.0076 17.0491V11.8643C86.0076 8.07845 83.5942 5.69141 79.5338 5.69141C75.4734 5.69141 73.1149 8.2168 72.9217 10.8498H76.9271C77.0633 10.2744 77.6672 9.28625 79.5338 9.28625C81.071 9.28625 82.057 9.99995 82.057 11.8643H78.1327C74.6213 11.8643 72.5352 13.7024 72.5352 16.7746C72.5352 19.8468 74.8168 22.1789 78.1042 22.1789C80.5154 22.1789 81.855 21.0392 82.4391 20.1762C82.9595 21.2193 84.1124 21.7946 85.6211 21.7946H86.9936V18.2283C86.2799 18.2283 86.0054 17.8989 86.0054 17.0491M82.0548 16.0345C82.0548 17.8177 80.7921 18.8322 79.1473 18.8322C77.7199 18.8322 76.5955 18.3118 76.5955 16.7746C76.5955 15.2374 77.8297 15.02 78.8991 15.02H82.0548V16.0345Z" fill="white"/>
<path d="M102.937 8.54525H98.5206V4.18401H108.754V0.259766H94.3789V21.7959H102.939C107.684 21.7959 110.401 19.4374 110.401 15.1025C110.401 11.0157 107.684 8.54525 102.939 8.54525M102.748 17.9002H98.5227V12.3026H102.748C104.942 12.3026 106.178 13.3171 106.178 15.1003C106.178 16.8834 104.944 17.898 102.748 17.898" fill="white"/>
<path d="M125.515 17.0491V11.8643C125.515 8.07845 123.102 5.69141 119.042 5.69141C114.981 5.69141 112.623 8.2168 112.429 10.8498H116.435C116.571 10.2744 117.175 9.28625 119.042 9.28625C120.579 9.28625 121.565 9.99995 121.565 11.8643H117.641C114.129 11.8643 112.043 13.7024 112.043 16.7746C112.043 19.8468 114.325 22.1789 117.612 22.1789C120.023 22.1789 121.363 21.0392 121.947 20.1762C122.467 21.2193 123.62 21.7946 125.129 21.7946H126.501V18.2283C125.788 18.2283 125.513 17.8989 125.513 17.0491M121.563 16.0345C121.563 17.8177 120.3 18.8322 118.655 18.8322C117.228 18.8322 116.103 18.3118 116.103 16.7746C116.103 15.2374 117.338 15.02 118.407 15.02H121.563V16.0345Z" fill="white"/>
<path d="M21.1255 27.7598H0V32.1496H21.1255V27.7598Z" fill="white"/>
<path d="M14.4038 3.21493C13.7999 1.41861 13.1059 0 10.7277 0C8.34942 0 7.60937 1.41202 6.97692 3.21493L0.439453 21.7952H4.77434L6.28299 17.3791H14.6234L16.0222 21.7952H20.6316L14.4038 3.21493ZM7.54569 13.6481L10.5081 4.84216H10.6179L13.4156 13.6481H7.54349H7.54569Z" fill="white"/>
</g>
</g>
<defs>
<clipPath id="clip0_9806_900">
<rect width="160" height="32.1493" fill="white"/>
</clipPath>
</defs>
</svg>
