<svg width="50" height="50" viewBox="0 0 50 50" fill="none" xmlns="http://www.w3.org/2000/svg">
<rect width="50" height="50" rx="25" fill="#2B2E3A"/>
<path d="M24.3319 15.0216C21.881 15.2596 19.7557 16.4996 18.4071 18.4788C17.785 19.389 17.3507 20.4078 17.1503 21.4266L17.1044 21.6604L16.6743 21.6813C16.3069 21.698 16.2067 21.7188 15.9687 21.8274C15.5887 22.0069 15.3424 22.2449 15.1545 22.6249L15 22.9422V27.0842L15.1545 27.4015C15.3424 27.7815 15.5846 28.0153 15.9729 28.199L16.2526 28.3326H17.0752C17.977 28.3326 18.0021 28.3243 18.2109 28.0445C18.2985 27.9318 18.2985 27.8733 18.3194 25.0633C18.3445 22.2992 18.3486 22.1781 18.4363 21.7439C19.0042 19.0257 21.0292 17.009 23.7474 16.4495C24.4196 16.3117 25.5553 16.3076 26.2317 16.4454C28.9582 16.9882 31.0125 19.0383 31.5637 21.7689C31.6597 22.2282 31.6597 22.2909 31.6597 24.9923C31.6597 28.0905 31.6597 28.1113 31.3424 29.0758C30.6701 31.1385 29.0501 32.746 27.0042 33.3806C26.4029 33.5644 25.9603 33.6479 25.2797 33.6896C24.7077 33.7272 24.6242 33.7606 24.4405 34.0069C24.3194 34.1698 24.3194 34.5623 24.4405 34.7251C24.666 35.0299 24.8956 35.0758 25.7349 34.9965C26.737 34.8963 27.5887 34.6583 28.4864 34.2199C30.0313 33.4683 31.2255 32.3159 32.0689 30.771C32.3946 30.1698 32.7119 29.2888 32.8497 28.5998L32.8956 28.366L33.3257 28.3452C33.6931 28.3285 33.7933 28.3076 34.0313 28.199C34.4113 28.0195 34.6576 27.7815 34.8455 27.4015L35 27.0842V22.9422L34.8455 22.6249C34.6576 22.2449 34.4113 22.0069 34.0313 21.8274C33.7933 21.7188 33.6931 21.698 33.3257 21.6813L32.8956 21.6604L32.8497 21.4266C32.5115 19.723 31.5052 18.0153 30.1816 16.9088C28.6743 15.6437 26.833 14.9756 24.9374 15.0007C24.6868 15.0049 24.4113 15.0132 24.3319 15.0216Z" fill="white"/>
<path d="M24.4154 17.6896C23.1712 17.8483 22.1148 18.366 21.238 19.247C20.6075 19.8775 20.2401 20.4579 19.9562 21.2554C19.6806 22.0445 19.6764 22.0738 19.6764 24.6792C19.6764 26.8295 19.6848 27.0717 19.7557 27.3932C19.9937 28.4746 20.4614 29.3389 21.238 30.1113C22.0104 30.8879 22.8831 31.3639 23.9562 31.5936C24.453 31.7021 25.547 31.7021 26.0438 31.5936C27.1253 31.3598 27.9729 30.8963 28.762 30.1113C29.5344 29.3389 30.0063 28.4746 30.2443 27.3932C30.3152 27.0717 30.3236 26.8295 30.3236 24.6792C30.3236 22.5289 30.3152 22.2867 30.2443 21.9652C30.0063 20.8838 29.5344 20.0195 28.762 19.247C27.9896 18.4746 27.1754 18.0236 26.1273 17.7856C25.7808 17.7063 24.7453 17.6479 24.4154 17.6896Z" fill="white"/>
</svg>
