<svg width="100" height="52" viewBox="0 0 100 52" fill="none" xmlns="http://www.w3.org/2000/svg">
<path d="M88.5849 27.258H84.0944V18.4366H79.7707V27.258H75.2803V14.6817H88.5849V27.258Z" fill="black"/>
<path fill-rule="evenodd" clip-rule="evenodd" d="M66.0581 27.7076C70.0779 27.7076 73.0629 25.243 73.0629 21.5065C73.0629 17.89 70.8606 15.542 67.1798 15.542C65.4811 15.542 64.0795 16.1399 63.0237 17.1716C63.2758 15.0392 65.0791 13.4823 67.0645 13.4823C67.5228 13.4823 70.9725 13.475 70.9725 13.475L72.9232 9.74201C72.9232 9.74201 68.5922 9.8406 66.5789 9.8406C61.9787 9.92076 58.8715 14.1021 58.8715 19.1807C58.8715 25.0972 61.902 27.7076 66.0581 27.7076ZM66.0825 18.8485C67.575 18.8485 68.6098 19.8292 68.6098 21.5061C68.6098 23.0153 67.6903 24.2588 66.0825 24.2622C64.5445 24.2622 63.5098 23.11 63.5098 21.5318C63.5098 19.8545 64.5445 18.8485 66.0825 18.8485Z" fill="black"/>
<path d="M55.2165 23.0479C55.2165 23.0479 54.156 23.6591 52.5722 23.7749C50.7513 23.8289 49.1289 22.6788 49.1289 20.6355C49.1289 18.6423 50.5606 17.5 52.5263 17.5C53.7317 17.5 55.3262 18.3354 55.3262 18.3354C55.3262 18.3354 56.493 16.1943 57.0974 15.1236C55.9906 14.2847 54.5165 13.8248 52.8019 13.8248C48.4748 13.8248 45.1233 16.6461 45.1233 20.6102C45.1233 24.6249 48.2734 27.3806 52.8019 27.2974C54.0677 27.2503 55.814 26.8058 56.8783 26.1221L55.2165 23.0479Z" fill="black"/>
<path d="M0 11.1961L6.22901 22.33V29.1214L0.00728689 40.2335L0 11.1961Z" fill="#5B57A2"/>
<path d="M23.9169 18.2785L29.7537 14.7011L41.699 14.6899L23.9169 25.5834V18.2785Z" fill="#D90751"/>
<path d="M23.8839 11.1305L23.9169 25.8715L17.6733 22.0351V0L23.8839 11.1305Z" fill="#FAB718"/>
<path d="M41.699 14.6899L29.7537 14.7011L23.8839 11.1305L17.6733 0L41.699 14.6899Z" fill="#ED6F26"/>
<path d="M23.9169 40.2952V33.1434L17.6733 29.3799L17.6767 51.4369L23.9169 40.2952Z" fill="#63B22F"/>
<path d="M29.7391 36.7504L6.22901 22.33L0 11.1961L41.6737 36.7358L29.7391 36.7504Z" fill="#1487C9"/>
<path d="M17.6771 51.4369L23.9169 40.2952L29.7391 36.7504L41.6737 36.7358L17.6771 51.4369Z" fill="#017F36"/>
<path d="M0.00728689 40.2335L17.7243 29.3803L11.7679 25.7257L6.22901 29.1214L0.00728689 40.2335Z" fill="#984995"/>
<path d="M49.1302 35.7215C48.993 35.8964 48.8126 36.0284 48.5961 36.1176C48.374 36.208 48.1364 36.254 47.8966 36.253C47.6581 36.2562 47.421 36.2165 47.1966 36.1356C46.9951 36.0624 46.8109 35.9482 46.6557 35.8004C46.5024 35.6522 46.382 35.4735 46.3025 35.2757C46.2163 35.0591 46.1734 34.8277 46.176 34.5946C46.176 34.3631 46.2159 34.1488 46.2986 33.9456C46.3779 33.742 46.4932 33.5676 46.6377 33.421C46.7821 33.2714 46.9553 33.1574 47.1499 33.0682C47.3483 32.9825 47.5648 32.9362 47.8027 32.9362C48.059 32.9362 48.2969 32.9683 48.5134 33.0322C48.7299 33.0965 48.9137 33.2037 49.0651 33.3537L48.8019 33.7995C48.6746 33.6841 48.5247 33.5965 48.3617 33.5423C48.2067 33.4924 48.0448 33.4672 47.882 33.4677C47.738 33.4677 47.6008 33.496 47.4675 33.5496C47.3361 33.6025 47.2161 33.68 47.1139 33.778C47.0094 33.8788 46.9271 34.0003 46.8721 34.1347C46.8108 34.2736 46.7821 34.427 46.7821 34.598C46.7821 34.7729 46.8143 34.9298 46.8756 35.0653C46.9373 35.2046 47.02 35.3224 47.1246 35.4219C47.2292 35.5222 47.3518 35.5968 47.4924 35.6469C47.6334 35.7005 47.7813 35.7254 47.9399 35.7254C48.1345 35.7254 48.3115 35.6859 48.4628 35.6109C48.6127 35.5385 48.7475 35.4381 48.8597 35.3152L49.1302 35.7215ZM49.873 36.178V33.0039H50.4431V35.3687L52.297 33.0039H52.8671V36.1784H52.297V33.8136L50.4431 36.1784L49.873 36.178ZM56.6434 35.7215C56.5032 35.8979 56.3192 36.0344 56.1098 36.1176C55.8875 36.2079 55.6497 36.254 55.4098 36.253C55.1714 36.2562 54.9345 36.2164 54.7103 36.1356C54.5086 36.0624 54.3243 35.9483 54.1689 35.8004C54.0156 35.6522 53.8952 35.4735 53.8157 35.2757C53.7295 35.0591 53.6866 34.8277 53.6892 34.5946C53.6892 34.3631 53.7291 34.1488 53.8118 33.9456C53.8915 33.742 54.0069 33.5676 54.1509 33.421C54.2953 33.2714 54.4685 33.1574 54.6631 33.0682C54.8687 32.9777 55.0913 32.9327 55.3159 32.9362C55.5722 32.9362 55.8101 32.9683 56.0266 33.0322C56.2431 33.0965 56.427 33.2037 56.5787 33.3537L56.3151 33.7995C56.188 33.684 56.0382 33.5964 55.8753 33.5423C55.7203 33.4924 55.5585 33.4672 55.3956 33.4677C55.1091 33.4686 54.8339 33.5798 54.6271 33.778C54.5235 33.8796 54.4413 34.0009 54.3853 34.1347C54.324 34.2736 54.2953 34.427 54.2953 34.598C54.2953 34.7729 54.3279 34.9298 54.3892 35.0653C54.4505 35.2046 54.5332 35.3224 54.6378 35.4219C54.7424 35.5222 54.8654 35.5968 55.006 35.6469C55.1466 35.6966 55.2945 35.7254 55.4531 35.7254C55.6481 35.7254 55.8213 35.6859 55.976 35.6109C56.126 35.5385 56.2607 35.4381 56.3729 35.3152L56.6434 35.7215ZM56.9357 33.0039H59.8608V33.5676H58.685V36.178H58.1149V33.5676H56.9392V33.0039H56.9357Z" fill="black"/>
<path fill-rule="evenodd" clip-rule="evenodd" d="M62.5231 36.1463C62.7395 36.0786 62.9234 35.9748 63.082 35.8325L62.9089 35.3902C62.8043 35.4832 62.6637 35.5616 62.4944 35.6259C62.3246 35.6902 62.1334 35.7219 61.9243 35.7219C61.6105 35.7219 61.3507 35.6401 61.145 35.4725C60.9397 35.3044 60.8278 35.0695 60.8025 34.7695H63.2698C63.2951 34.6589 63.3058 34.5342 63.3058 34.388C63.3058 34.1702 63.2659 33.9744 63.1866 33.796C63.1128 33.6229 63.0049 33.4663 62.8694 33.3357C62.732 33.2063 62.5701 33.1057 62.3932 33.0399C62.208 32.9681 62.011 32.9317 61.8124 32.9328C61.5454 32.9328 61.3109 32.9791 61.1056 33.0648C60.9115 33.1465 60.7359 33.2666 60.5895 33.418C60.4474 33.5686 60.3382 33.7471 60.2689 33.9422C60.1927 34.15 60.1548 34.3699 60.157 34.5912C60.157 34.8411 60.2003 35.0691 60.2796 35.2727C60.3567 35.4699 60.4748 35.6486 60.6259 35.7969C60.7738 35.9427 60.9538 36.0537 61.1669 36.1321C61.3949 36.213 61.6356 36.2528 61.8776 36.2496C62.0967 36.2482 62.3144 36.2131 62.5231 36.1463ZM61.0803 33.703C61.2569 33.5427 61.4913 33.4643 61.7871 33.4643C62.0649 33.4643 62.2886 33.5393 62.4511 33.6893C62.6135 33.8389 62.6997 34.0459 62.7143 34.3096H60.7665C60.7941 34.0762 60.9056 33.8603 61.0803 33.703Z" fill="black"/>
<path d="M64.0812 33.0039H64.6007L65.8343 34.577L67.0028 33.0039H67.5077V36.1784H66.9381V33.8638L65.827 35.3366H65.8052L64.6513 33.8633V36.178H64.0812V33.0039Z" fill="black"/>
<path fill-rule="evenodd" clip-rule="evenodd" d="M69.0586 33.0146C68.8856 33.0598 68.7203 33.1306 68.5682 33.2247L68.7195 33.6747C68.8494 33.6104 68.9793 33.5569 69.1091 33.5106C69.239 33.4639 69.4049 33.4424 69.6034 33.4424C69.762 33.4424 69.8884 33.4677 69.9857 33.5174C70.083 33.5637 70.155 33.6353 70.2056 33.721C70.2562 33.8068 70.2888 33.9135 70.3068 34.0382C70.3248 34.163 70.3321 34.2984 70.3321 34.445C70.2154 34.3637 70.0824 34.3089 69.9424 34.2843C69.807 34.2574 69.6694 34.243 69.5314 34.2414C69.3616 34.2414 69.203 34.2667 69.0513 34.3091C68.9 34.352 68.7701 34.4163 68.6655 34.502C68.5587 34.5876 68.4725 34.696 68.413 34.8192C68.3495 34.9541 68.3174 35.1017 68.3192 35.2509C68.3192 35.5612 68.4096 35.8038 68.5896 35.9753C68.7701 36.1463 69.008 36.2316 69.3037 36.2316C69.5708 36.2316 69.7838 36.1853 69.9458 36.0927C70.1083 35.9997 70.2382 35.893 70.3321 35.7717V36.1819H70.8657V34.2345C70.8657 33.8205 70.7757 33.4999 70.5918 33.2748C70.4114 33.0502 70.0903 32.9362 69.6359 32.9362C69.4336 32.9362 69.2425 32.9645 69.0586 33.0146ZM70.0114 35.5865C69.8816 35.6791 69.7118 35.7215 69.5026 35.7215C69.3187 35.7215 69.1743 35.6752 69.0736 35.5861C68.9724 35.4935 68.9218 35.3722 68.9218 35.2221C68.9218 35.1334 68.9398 35.0584 68.9797 34.9907C69.0196 34.9229 69.0736 34.8694 69.1349 34.8265C69.2019 34.7817 69.2764 34.749 69.3548 34.7301C69.4379 34.7086 69.5206 34.6979 69.6072 34.6979C69.8888 34.6979 70.1302 34.7656 70.3286 34.9084V35.3113C70.2351 35.4161 70.1285 35.5089 70.0114 35.5865ZM75.898 31.8873C76.0133 31.8342 76.1213 31.745 76.2224 31.613L75.9121 31.1672C75.8328 31.2744 75.7428 31.3489 75.6416 31.3884C75.5344 31.4303 75.4233 31.4613 75.3099 31.481L75.2019 31.5002C75.108 31.5165 75.0072 31.5345 74.8988 31.5525C74.7249 31.5847 74.5554 31.6374 74.3939 31.7094C74.1375 31.82 73.9322 31.9696 73.777 32.1586C73.6219 32.3477 73.4993 32.5616 73.4161 32.7973C73.3319 33.0361 73.2751 33.2838 73.2468 33.5354C73.2177 33.7926 73.2035 34.0382 73.2035 34.2736C73.2035 34.577 73.243 34.8514 73.3223 35.0974C73.402 35.3439 73.5134 35.5505 73.6613 35.7181C73.8092 35.8895 73.9862 36.0181 74.1954 36.1107C74.4046 36.2033 74.639 36.2496 74.9022 36.2496C75.144 36.2496 75.3677 36.2033 75.5696 36.1176C75.7642 36.0352 75.9408 35.9153 76.0891 35.7648C76.2331 35.6182 76.3489 35.4433 76.4282 35.2474C76.5109 35.0511 76.5508 34.8406 76.5508 34.6195C76.5508 34.3807 76.5148 34.1634 76.4462 33.9705C76.383 33.7866 76.2823 33.6179 76.1504 33.475C76.0183 33.3345 75.8569 33.2248 75.6776 33.1535C75.4802 33.0758 75.2696 33.037 75.0574 33.0395C74.9202 33.0395 74.7869 33.0575 74.657 33.0931C74.5307 33.1287 74.4094 33.1803 74.2961 33.2465C74.1862 33.3095 74.0855 33.3874 73.9969 33.478C73.9104 33.5676 73.8383 33.6675 73.7878 33.7815H73.7732C73.7843 33.6353 73.8023 33.4857 73.8345 33.3323C73.8671 33.1788 73.9138 33.0322 73.9755 32.8933C74.0368 32.7545 74.1161 32.6293 74.2134 32.5153C74.3177 32.4002 74.4457 32.3089 74.5885 32.2478C74.7455 32.173 74.9116 32.1191 75.0827 32.0875L75.1958 32.0669C75.3086 32.0463 75.4162 32.0266 75.519 32.0052C75.6562 31.9769 75.7822 31.9405 75.898 31.8873ZM73.8923 34.9371C73.8366 34.757 73.8098 34.5692 73.813 34.3807C73.8372 34.2725 73.8813 34.1698 73.9429 34.0777C74.0042 33.9812 74.0835 33.8959 74.1774 33.8205C74.3892 33.6545 74.6511 33.5654 74.9202 33.5676C75.2559 33.5676 75.5083 33.6709 75.6849 33.8745C75.8619 34.0811 75.9485 34.3379 75.9485 34.6482C75.9485 34.8016 75.9194 34.9409 75.8692 35.0691C75.8205 35.1955 75.7468 35.3109 75.6527 35.4083C75.5585 35.5057 75.4457 35.5832 75.321 35.6362C75.1911 35.6932 75.0501 35.7219 74.8915 35.7219C74.7329 35.7219 74.5885 35.6898 74.4552 35.6255C74.3227 35.5625 74.2056 35.4712 74.1122 35.358C74.0145 35.2319 73.94 35.0894 73.8923 34.9371ZM80.9225 33.0039H80.3524V36.1784H80.9225V33.0039ZM77.943 33.0039V33.9564H78.4698C78.7184 33.9564 78.9203 33.9885 79.0828 34.0489C79.2452 34.1098 79.3751 34.1917 79.4724 34.2916C79.5697 34.3914 79.6383 34.5093 79.6781 34.6409C79.7176 34.7729 79.7394 34.9084 79.7394 35.0511C79.7394 35.1938 79.7176 35.3297 79.6709 35.4652C79.6276 35.6006 79.5517 35.7181 79.4505 35.8252C79.3498 35.9324 79.2126 36.0181 79.0395 36.0824C78.8663 36.1463 78.6571 36.1819 78.4046 36.1819H77.3695V33.0039H77.943ZM77.943 35.6503H78.3579C78.643 35.6503 78.8449 35.6006 78.9602 35.5003C79.0759 35.4005 79.1333 35.2581 79.1333 35.0691C79.1333 34.8762 79.072 34.7305 78.9567 34.6302C78.8376 34.5303 78.6391 34.4802 78.3652 34.4802H77.943V35.6503Z" fill="black"/>
<path d="M84.692 35.7215C84.5548 35.8964 84.3743 36.0284 84.1579 36.1176C83.9358 36.2079 83.6981 36.254 83.4583 36.253C83.2198 36.2562 82.9827 36.2165 82.7584 36.1356C82.5568 36.0625 82.3726 35.9483 82.2174 35.8004C82.0641 35.6522 81.9436 35.4734 81.8638 35.2757C81.778 35.059 81.7352 34.8277 81.7378 34.5946C81.7378 34.3631 81.7772 34.1488 81.8604 33.9456C81.9397 33.742 82.055 33.5676 82.1994 33.421C82.3439 33.2714 82.5166 33.1574 82.7116 33.0682C82.9172 32.9777 83.1399 32.9326 83.3645 32.9362C83.6204 32.9362 83.8587 32.9683 84.0751 33.0322C84.2916 33.0965 84.4755 33.2037 84.6268 33.3537L84.3636 33.7995C84.2363 33.6841 84.0864 33.5965 83.9234 33.5423C83.7684 33.4924 83.6066 33.4672 83.4437 33.4677C83.2997 33.4677 83.1626 33.496 83.0288 33.5496C82.8976 33.6025 82.7777 33.68 82.6756 33.778C82.5719 33.8795 82.4897 34.0008 82.4339 34.1347C82.3726 34.2736 82.3439 34.427 82.3439 34.598C82.3439 34.7729 82.376 34.9298 82.4373 35.0653C82.4986 35.2046 82.5818 35.3224 82.6863 35.4219C82.7909 35.5222 82.9135 35.5968 83.0541 35.6469C83.1951 35.6966 83.343 35.7254 83.5016 35.7254C83.6962 35.7254 83.8694 35.6859 84.0246 35.6109C84.1745 35.5385 84.3092 35.4381 84.4215 35.3152L84.692 35.7215ZM84.9839 33.0039H87.9093V33.5676H86.7331V36.178H86.1635V33.5676H84.9877V33.0039H84.9839Z" fill="black"/>
<path fill-rule="evenodd" clip-rule="evenodd" d="M89.0997 33.0043H88.5296V37.5908H89.0997V36.0323C89.215 36.1073 89.3521 36.1609 89.5107 36.1964C89.6693 36.232 89.8352 36.2496 90.005 36.2496C90.2574 36.2496 90.4846 36.2033 90.6903 36.118C90.8877 36.0336 91.0665 35.9113 91.2167 35.7579C91.3646 35.6041 91.4765 35.4257 91.5558 35.2153C91.6351 35.0052 91.6749 34.7802 91.6749 34.5415C91.6749 34.3057 91.6389 34.0884 91.5704 33.8921C91.5058 33.7056 91.4053 33.5336 91.2746 33.3858C91.1463 33.2417 90.9872 33.1283 90.8091 33.0541C90.6144 32.9704 90.4041 32.9291 90.1923 32.9328C89.9689 32.9328 89.7598 32.9756 89.5613 33.0614C89.3629 33.1471 89.2077 33.25 89.0997 33.3786V33.0043ZM89.4966 33.5929C89.659 33.5071 89.8356 33.4643 90.0268 33.4643C90.1927 33.4643 90.3406 33.4891 90.4743 33.5427C90.6042 33.5963 90.7122 33.6713 90.8027 33.7712C90.8927 33.8711 90.9613 33.9855 91.0045 34.1205C91.0513 34.256 91.0731 34.4026 91.0731 34.5629C91.0731 34.7343 91.044 34.8874 90.9938 35.0301C90.9465 35.1654 90.8715 35.2894 90.7735 35.394C90.6751 35.4974 90.5559 35.5788 90.4237 35.6328C90.2764 35.6945 90.1179 35.7248 89.9582 35.7219C89.8035 35.7219 89.659 35.7044 89.5219 35.6688C89.3717 35.6279 89.2292 35.5628 89.1001 35.4759V33.9028C89.2008 33.7819 89.3346 33.6786 89.4966 33.5929ZM96.0466 33.0039H95.4765V36.1784H96.0466V33.0039ZM93.0637 33.0039V33.9564H93.5901C93.8391 33.9564 94.041 33.9885 94.2035 34.0489C94.3659 34.1098 94.4958 34.1917 94.5931 34.2916C94.6904 34.3914 94.759 34.5093 94.7984 34.6409C94.8383 34.7729 94.8597 34.9084 94.8597 35.0511C94.8597 35.1938 94.8383 35.3297 94.7916 35.4652C94.7483 35.6006 94.6724 35.7181 94.5713 35.8252C94.4705 35.9324 94.3334 36.0181 94.1602 36.0824C93.987 36.1463 93.7778 36.1819 93.5254 36.1819H92.4902V33.0039H93.0637ZM93.0676 35.6503H93.4825C93.7671 35.6503 93.9695 35.6006 94.0848 35.5003C94.2001 35.4005 94.2579 35.2581 94.2579 35.0691C94.2579 34.8762 94.1966 34.7305 94.0813 34.6302C93.9622 34.5303 93.7637 34.4802 93.4898 34.4802H93.0676V35.6503Z" fill="black"/>
<path d="M98.7809 34.5342L100 36.1784H99.3005L98.3587 34.8942L97.4029 36.1784H96.7393L97.9511 34.5625L96.8113 33.0039H97.5113L98.3806 34.2024L99.264 33.0039H99.928L98.7809 34.5342ZM48.7084 40.1018H46.9591V42.7482H46.389V39.5741H49.2781V42.7482H48.7084V40.1018ZM52.5135 40.1374H51.3883L51.3518 40.6723C51.3124 41.1254 51.2584 41.4893 51.1825 41.7671C51.1067 42.0457 51.0128 42.2596 50.9048 42.4092C50.7968 42.5592 50.6703 42.6625 50.5259 42.7126C50.3768 42.7667 50.2193 42.7932 50.0608 42.7911L50.0175 42.2416C50.0788 42.245 50.1508 42.2308 50.2301 42.1953C50.3098 42.1597 50.3891 42.0812 50.4646 41.9638C50.5404 41.8421 50.609 41.671 50.6703 41.4499C50.7316 41.2253 50.7715 40.9329 50.7929 40.5651L50.8508 39.5771H53.0836V42.7516H52.5135V40.1374Z" fill="black"/>
<path fill-rule="evenodd" clip-rule="evenodd" d="M54.6202 39.5814C54.4359 39.6311 54.27 39.7023 54.1294 39.7914L54.2812 40.2411C54.4111 40.1768 54.5409 40.1232 54.6704 40.0769C54.8003 40.0306 54.9666 40.0092 55.1646 40.0092C55.3236 40.0092 55.4497 40.0341 55.547 40.0838C55.6447 40.1305 55.7167 40.2017 55.7673 40.2874C55.8174 40.3731 55.85 40.4803 55.868 40.6046C55.886 40.7297 55.8933 40.8652 55.8933 41.0114C55.7766 40.9302 55.6437 40.8755 55.5037 40.851C55.3683 40.8241 55.2307 40.8098 55.0926 40.8082C54.9233 40.8082 54.7643 40.833 54.6129 40.8759C54.4612 40.9188 54.3313 40.9831 54.2267 41.0688C54.12 41.1544 54.0337 41.2628 53.9743 41.386C53.9109 41.521 53.8789 41.6685 53.8808 41.8176C53.8808 42.1275 53.9708 42.3706 54.1513 42.5416C54.3313 42.7126 54.5697 42.7984 54.8654 42.7984C55.1325 42.7984 55.3451 42.7521 55.5075 42.6591C55.6695 42.5665 55.7994 42.4593 55.8933 42.338V42.7482H56.4274V40.8009C56.4274 40.3873 56.3369 40.0662 56.1531 39.8416C55.9726 39.6166 55.6515 39.503 55.1972 39.503C55.0022 39.5031 54.8082 39.5298 54.6202 39.5814ZM55.5761 42.1524C55.4467 42.2454 55.2769 42.2883 55.0677 42.2883C54.88 42.2883 54.7394 42.242 54.6387 42.1524C54.5375 42.0598 54.4869 41.9385 54.4869 41.7889C54.4869 41.6998 54.5049 41.6247 54.5448 41.557C54.5842 41.4893 54.6387 41.4357 54.7 41.3928C54.7613 41.35 54.8367 41.3178 54.9199 41.2964C55.0023 41.2751 55.0872 41.2645 55.1723 41.2647C55.4535 41.2647 55.6953 41.3324 55.8937 41.4747V41.8776C55.8 41.9824 55.6933 42.0748 55.5761 42.1524Z" fill="black"/>
<path d="M56.9859 39.5741H59.9114V40.1374H58.7352V42.7482H58.1655V40.1378H56.9898V39.5741H56.9859Z" fill="black"/>
<path fill-rule="evenodd" clip-rule="evenodd" d="M62.5737 42.7161C62.7901 42.6483 62.974 42.5446 63.1326 42.4023L62.9594 41.9599C62.8549 42.053 62.7143 42.1314 62.5445 42.1957C62.3752 42.26 62.184 42.2917 61.9749 42.2917C61.6611 42.2917 61.4013 42.2098 61.1956 42.0422C60.9898 41.8746 60.8784 41.6393 60.8531 41.3393H63.3204C63.3452 41.2291 63.3564 41.1039 63.3564 40.9578C63.3564 40.7405 63.3165 40.5441 63.2372 40.3658C63.1633 40.1927 63.0553 40.0363 62.9196 39.9059C62.7825 39.7762 62.6207 39.6755 62.4438 39.6097C62.2586 39.5379 62.0616 39.5015 61.863 39.5025C61.5959 39.5025 61.3615 39.5488 61.1561 39.6346C60.9619 39.716 60.7863 39.8362 60.6401 39.9878C60.498 40.1384 60.3886 40.3169 60.319 40.512C60.243 40.7198 60.2051 40.9397 60.2071 41.161C60.2071 41.4109 60.2504 41.6389 60.3297 41.8425C60.4095 42.0457 60.5282 42.2206 60.6761 42.3667C60.824 42.5129 61.0044 42.6235 61.2174 42.7019C61.4454 42.7829 61.6858 42.8229 61.9277 42.8198C62.1407 42.8198 62.3572 42.7838 62.5737 42.7161ZM61.1274 40.2694C61.304 40.1091 61.5385 40.0306 61.8343 40.0306C62.1159 40.0306 62.3358 40.1091 62.4982 40.2552C62.6602 40.4053 62.7468 40.6119 62.7614 40.8759H60.8137C60.8412 40.6423 60.9527 40.4268 61.1274 40.2694ZM63.6341 39.5741H64.3555L65.4554 41.1044L64.2797 42.7482H63.5801L64.8133 41.1039L63.6341 39.5741ZM65.596 39.5741H66.1661V42.7482H65.596V39.5741ZM68.2039 42.7482L66.9488 41.1039L68.1211 39.5737H67.4139L66.3067 41.1039L67.497 42.7482H68.2039ZM70.8083 42.7161C71.0247 42.6483 71.2086 42.5446 71.3672 42.4023L71.1941 41.9599C71.0895 42.053 70.9489 42.1314 70.7796 42.1957C70.6098 42.26 70.4186 42.2917 70.2095 42.2917C69.8957 42.2917 69.6359 42.2098 69.4302 42.0422C69.2249 41.8746 69.113 41.6393 69.0877 41.3393H71.555C71.5803 41.2291 71.591 41.1039 71.591 40.9578C71.591 40.7405 71.5515 40.5441 71.4718 40.3658C71.398 40.1928 71.2901 40.0364 71.1546 39.9059C71.0174 39.7762 70.8554 39.6755 70.6784 39.6097C70.4932 39.5379 70.2962 39.5015 70.0976 39.5025C69.831 39.5025 69.5965 39.5488 69.3908 39.6346C69.1967 39.7161 69.0213 39.8363 68.8751 39.9878C68.7327 40.1382 68.6233 40.3168 68.5541 40.512C68.4779 40.7198 68.4399 40.9397 68.4422 41.161C68.4422 41.4109 68.4855 41.6389 68.5648 41.8425C68.6441 42.0457 68.7632 42.2206 68.9111 42.3667C69.059 42.5129 69.239 42.6235 69.4521 42.7019C69.6801 42.7829 69.9207 42.8229 70.1627 42.8198C70.3819 42.8182 70.5996 42.7832 70.8083 42.7161ZM69.362 40.2694C69.5391 40.1091 69.7735 40.0306 70.0693 40.0306C70.3471 40.0306 70.5704 40.1091 70.7328 40.2552C70.8953 40.4053 70.9819 40.6119 70.996 40.8759H69.0483C69.0758 40.6423 69.1873 40.4268 69.362 40.2694ZM73.9035 38.5077C73.5679 38.5077 73.384 38.3221 73.3553 37.9513H72.8177C72.8177 38.0936 72.843 38.2222 72.8898 38.3435C72.9369 38.4648 73.0055 38.5681 73.0955 38.6538C73.1855 38.7396 73.3013 38.8073 73.4346 38.8604C73.5679 38.914 73.723 38.9389 73.8996 38.9389C74.0621 38.9389 74.2065 38.914 74.3364 38.8604C74.4663 38.8107 74.5743 38.7396 74.6682 38.6538C74.7582 38.5681 74.8306 38.4648 74.8808 38.3435C74.9314 38.2222 74.9567 38.0936 74.9567 37.9513H74.423C74.3977 38.3221 74.2207 38.5077 73.9035 38.5077ZM72.363 39.5737V42.7482H72.933L74.7869 40.3834V42.7482H75.357V39.5737H74.7869L72.933 41.9385V39.5737H72.363Z" fill="black"/>
</svg>
