<svg width="40" height="40" viewBox="0 0 40 40" fill="none" xmlns="http://www.w3.org/2000/svg">
<path d="M37.0696 2.92894C34.1408 -2.28882e-07 29.4266 0 19.9986 0C10.5705 0 5.85646 -2.28882e-07 2.92754 2.92894C1.41256 4.4439 0.6812 6.43648 0.32812 9.31196C1.38946 8.13064 2.66472 7.14656 4.09672 6.41692C5.65968 5.62054 7.33328 5.2976 9.18632 5.1462C10.9766 4.99994 13.1794 4.99996 15.8729 5H24.1242C26.8178 4.99996 29.0206 4.99994 30.8108 5.1462C32.664 5.2976 34.3376 5.62054 35.9004 6.41692C37.3324 7.14656 38.6078 8.13064 39.669 9.31196C39.316 6.43648 38.5846 4.4439 37.0696 2.92894Z" fill="#2B2E3A"/>
<path fill-rule="evenodd" clip-rule="evenodd" d="M0 24C0 18.3994 1.14441e-07 15.5992 1.08994 13.4601C2.04866 11.5785 3.57848 10.0487 5.4601 9.08994C7.59922 8 10.3995 8 16 8H24C29.6006 8 32.4008 8 34.54 9.08994C36.4216 10.0487 37.9514 11.5785 38.91 13.4601C40 15.5992 40 18.3994 40 24C40 29.6006 40 32.4008 38.91 34.54C37.9514 36.4216 36.4216 37.9514 34.54 38.91C32.4008 40 29.6006 40 24 40H16C10.3995 40 7.59922 40 5.4601 38.91C3.57848 37.9514 2.04866 36.4216 1.08994 34.54C1.14441e-07 32.4008 0 29.6006 0 24ZM21.0606 16.9394C20.7794 16.658 20.3978 16.5 20 16.5C19.6022 16.5 19.2206 16.658 18.9394 16.9394L13.9393 21.9394C13.3536 22.5252 13.3536 23.4748 13.9393 24.0606C14.5251 24.6464 15.4749 24.6464 16.0606 24.0606L18.5 21.6214V30C18.5 30.8284 19.1716 31.5 20 31.5C20.8284 31.5 21.5 30.8284 21.5 30V21.6214L23.9394 24.0606C24.5252 24.6464 25.4748 24.6464 26.0606 24.0606C26.6464 23.4748 26.6464 22.5252 26.0606 21.9394L21.0606 16.9394Z" fill="#2B2E3A"/>
</svg>
