<svg width="60" height="60" viewBox="0 0 60 60" fill="none" xmlns="http://www.w3.org/2000/svg">
<path d="M60 30C60 46.5685 46.5685 60 30 60C13.4315 60 0 46.5685 0 30C0 13.4315 13.4315 0 30 0C46.5685 0 60 13.4315 60 30Z" fill="#2B2E3A"/>
<path d="M25.4832 39.7279C26.5245 41.0517 28.1604 41.9048 30 41.9048C31.8396 41.9048 33.4755 41.0517 34.5168 39.7279C31.5184 40.1343 28.4816 40.1343 25.4832 39.7279Z" fill="white"/>
<path d="M38.356 25.8095V26.6813C38.356 27.7275 38.6547 28.7502 39.2141 29.6206C39.2141 29.6206 39.3328 29.8055 40.5852 31.7539C41.8377 33.7023 40.8816 36.3505 38.7033 36.9667C33.0052 38.5785 26.9948 38.5785 21.2966 36.9667C19.1184 36.3505 18.1623 33.7023 19.4147 31.7539L20.7858 29.6206C21.3454 28.7502 21.6439 27.7275 21.6439 26.6813V25.8095C21.6439 21.0231 25.3851 17.1429 30 17.1429C34.6149 17.1429 38.356 21.0231 38.356 25.8095Z" fill="white"/>
</svg>
