<svg width="60" height="60" viewBox="0 0 60 60" fill="none" xmlns="http://www.w3.org/2000/svg">
<path d="M60 30C60 46.5685 46.5685 60 30 60C13.4315 60 0 46.5685 0 30C0 13.4315 13.4315 0 30 0C46.5685 0 60 13.4315 60 30Z" fill="#2B2E3A"/>
<path d="M37.9215 22.0777C36.4153 20.5714 33.9908 20.5714 29.1421 20.5714C24.2934 20.5714 21.869 20.5714 20.3627 22.0777C19.5836 22.8569 19.2075 23.8816 19.0259 25.3604C19.5717 24.7529 20.2276 24.2468 20.964 23.8716C21.7678 23.462 22.6285 23.2959 23.5815 23.218C24.5022 23.1428 25.6351 23.1428 27.0204 23.1429H31.2639C32.6492 23.1428 33.782 23.1428 34.7027 23.218C35.6558 23.2959 36.5165 23.462 37.3202 23.8716C38.0567 24.2468 38.7126 24.7529 39.2583 25.3604C39.0768 23.8816 38.7007 22.8569 37.9215 22.0777Z" fill="white"/>
<path fill-rule="evenodd" clip-rule="evenodd" d="M18.8571 32.9143C18.8571 30.034 18.8571 28.5939 19.4177 27.4938C19.9107 26.5261 20.6975 25.7393 21.6652 25.2463C22.7653 24.6857 24.2054 24.6857 27.0857 24.6857H31.2C34.0803 24.6857 35.5204 24.6857 36.6206 25.2463C37.5883 25.7393 38.375 26.5261 38.868 27.4938C39.4286 28.5939 39.4286 30.034 39.4286 32.9143C39.4286 35.7946 39.4286 37.2347 38.868 38.3349C38.375 39.3025 37.5883 40.0893 36.6206 40.5823C35.5204 41.1429 34.0803 41.1429 31.2 41.1429H27.0857C24.2054 41.1429 22.7653 41.1429 21.6652 40.5823C20.6975 40.0893 19.9107 39.3025 19.4177 38.3349C18.8571 37.2347 18.8571 35.7946 18.8571 32.9143ZM29.6883 29.2831C29.5437 29.1384 29.3474 29.0571 29.1429 29.0571C28.9383 29.0571 28.742 29.1384 28.5974 29.2831L26.0259 31.8545C25.7247 32.1558 25.7247 32.6442 26.0259 32.9454C26.3272 33.2467 26.8157 33.2467 27.1169 32.9454L28.3714 31.691V36C28.3714 36.426 28.7168 36.7714 29.1429 36.7714C29.5689 36.7714 29.9143 36.426 29.9143 36V31.691L31.1688 32.9454C31.4701 33.2467 31.9585 33.2467 32.2597 32.9454C32.561 32.6442 32.561 32.1558 32.2597 31.8545L29.6883 29.2831Z" fill="white"/>
</svg>
