<svg width="60" height="60" viewBox="0 0 60 60" fill="none" xmlns="http://www.w3.org/2000/svg">
<path d="M60 30C60 46.5685 46.5685 60 30 60C13.4315 60 0 46.5685 0 30C0 13.4315 13.4315 0 30 0C46.5685 0 60 13.4315 60 30Z" fill="#2B2E3A"/>
<path d="M38.5532 24.574L35.426 21.4468L29.2141 27.0033L29.4666 30.5334L32.9967 30.7859L38.5532 24.574Z" fill="white"/>
<path d="M39.2087 25.8851L34.1149 20.7913C33.9339 20.6103 33.9339 20.3167 34.1149 20.1358C34.296 19.9547 34.5894 19.9547 34.7705 20.1358L39.8642 25.2295C40.0453 25.4106 40.0453 25.704 39.8642 25.8851C39.6832 26.0661 39.3897 26.0661 39.2087 25.8851Z" fill="white"/>
<path d="M27.3444 31.6067L20.4588 38.4923L20 40L21.5077 39.5411L28.3932 32.6556L27.3444 31.6067Z" fill="white"/>
<path d="M32.9967 30.7859L29.2141 27.0033C26.8808 26.1158 24.1418 26.6116 22.2623 28.4911L31.5088 37.7377C33.3884 35.8582 33.8842 33.1191 32.9967 30.7859Z" fill="white"/>
</svg>
