<svg width="60" height="60" viewBox="0 0 60 60" fill="none" xmlns="http://www.w3.org/2000/svg">
<path d="M60 30C60 46.5685 46.5685 60 30 60C13.4315 60 0 46.5685 0 30C0 13.4315 13.4315 0 30 0C46.5685 0 60 13.4315 60 30Z" fill="#2B2E3A"/>
<path d="M22.7194 39.3768L20.9143 26.7429H37.3714L35.5663 39.3768C35.4962 39.867 35.2517 40.3155 34.8776 40.6399C34.5035 40.9643 34.0249 41.1429 33.5297 41.1429H24.756C24.2608 41.1429 23.7822 40.9643 23.4081 40.6399C23.034 40.3155 22.7895 39.867 22.7194 39.3768ZM38.4 22.6286H33.2571V21.6C33.2571 21.3272 33.1488 21.0656 32.9559 20.8727C32.763 20.6798 32.5014 20.5714 32.2286 20.5714H26.0571C25.7843 20.5714 25.5227 20.6798 25.3298 20.8727C25.1369 21.0656 25.0286 21.3272 25.0286 21.6V22.6286H19.8857C19.6129 22.6286 19.3513 22.7369 19.1584 22.9298C18.9655 23.1227 18.8571 23.3843 18.8571 23.6571C18.8571 23.9299 18.9655 24.1916 19.1584 24.3845C19.3513 24.5773 19.6129 24.6857 19.8857 24.6857H38.4C38.6728 24.6857 38.9344 24.5773 39.1273 24.3845C39.3202 24.1916 39.4286 23.9299 39.4286 23.6571C39.4286 23.3843 39.3202 23.1227 39.1273 22.9298C38.9344 22.7369 38.6728 22.6286 38.4 22.6286Z" fill="white"/>
</svg>
