<svg width="60" height="60" viewBox="0 0 60 60" fill="none" xmlns="http://www.w3.org/2000/svg">
<path d="M60 30C60 46.5685 46.5685 60 30 60C13.4315 60 0 46.5685 0 30C0 13.4315 13.4315 0 30 0C46.5685 0 60 13.4315 60 30Z" fill="#2B2E3A"/>
<path fill-rule="evenodd" clip-rule="evenodd" d="M42.477 21.523C43.1743 22.2204 43.1743 23.351 42.477 24.0484L28.1913 38.3341C27.4939 39.0315 26.3632 39.0315 25.6659 38.3341L18.523 31.1913C17.8257 30.4939 17.8257 29.3632 18.523 28.6659C19.2204 27.9685 20.351 27.9685 21.0484 28.6659L26.9286 34.546L39.9516 21.523C40.649 20.8257 41.7796 20.8257 42.477 21.523Z" fill="white"/>
</svg>
