<svg width="60" height="60" viewBox="0 0 60 60" fill="none" xmlns="http://www.w3.org/2000/svg">
<path d="M60 30C60 46.5685 46.5685 60 30 60C13.4315 60 0 46.5685 0 30C0 13.4315 13.4315 0 30 0C46.5685 0 60 13.4315 60 30Z" fill="#2B2E3A"/>
<path d="M30 41.1429C36.154 41.1429 41.1429 36.154 41.1429 30C41.1429 28.9905 41.0086 28.0123 40.757 27.0824C40.6619 26.7311 40.25 26.5912 39.9203 26.7453C39.2762 27.0462 38.5577 27.2143 37.8 27.2143C35.0307 27.2143 32.7857 24.9693 32.7857 22.2C32.7857 21.4422 32.9537 20.7237 33.2547 20.0798C33.4088 19.75 33.269 19.3381 32.9176 19.243C31.9877 18.9914 31.0095 18.8571 30 18.8571C23.846 18.8571 18.8571 23.846 18.8571 30C18.8571 31.7825 19.2757 33.4672 20.0199 34.9614C20.2176 35.3584 20.2834 35.8122 20.1688 36.2407L19.5051 38.7212C19.217 39.7979 20.2021 40.7829 21.2789 40.4949L23.7593 39.8312C24.1878 39.7166 24.6416 39.7824 25.0387 39.9801C26.5328 40.7243 28.2175 41.1429 30 41.1429Z" fill="white"/>
<path d="M37.8 25.5429C39.6462 25.5429 41.1429 24.0462 41.1429 22.2C41.1429 20.3538 39.6462 18.8571 37.8 18.8571C35.9538 18.8571 34.4571 20.3538 34.4571 22.2C34.4571 24.0462 35.9538 25.5429 37.8 25.5429Z" fill="white"/>
</svg>
