<svg width="49" height="47" viewBox="0 0 49 47" fill="none" xmlns="http://www.w3.org/2000/svg">
<path d="M25.1941 0.101562L16.0096 23.4166H1.79115C1.78328 22.5398 2.118 21.6564 2.79532 20.9869L22.9325 1.06504C23.5612 0.444162 24.3737 0.126503 25.1941 0.101562Z" fill="url(#paint0_linear_9806_599)"/>
<path d="M48.5904 23.4178H34.3719L25.1953 0.102722C26.0958 0.0633428 27.012 0.398064 27.6959 1.08195L47.602 20.9881C48.2715 21.6575 48.5983 22.5409 48.5904 23.4178Z" fill="url(#paint1_linear_9806_599)"/>
<path d="M48.5904 23.418C48.5747 24.2699 48.24 25.1231 47.5941 25.7676L27.5292 45.7538C26.8834 46.3996 26.0393 46.7251 25.1953 46.7409L34.3719 23.418H48.5904Z" fill="url(#paint2_linear_9806_599)"/>
<path d="M25.1953 46.7409C24.3185 46.7488 23.4351 46.4219 22.7578 45.7538L2.78731 25.7755C2.13361 25.1218 1.8002 24.2777 1.79102 23.418H16.0095L25.1953 46.7409Z" fill="url(#paint3_linear_9806_599)"/>
<path d="M34.3709 23.4179H16.0098L25.1943 0.101562L34.3709 23.4179Z" fill="url(#paint4_linear_9806_599)"/>
<path d="M34.3709 23.418L25.1943 46.7409L16.0098 23.418H34.3709Z" fill="url(#paint5_linear_9806_599)"/>
<defs>
<linearGradient id="paint0_linear_9806_599" x1="13.4921" y1="1.55831" x2="13.4921" y2="31.6025" gradientUnits="userSpaceOnUse">
<stop stop-color="#CACACA"/>
<stop offset="1" stop-color="#FAF6EE"/>
</linearGradient>
<linearGradient id="paint1_linear_9806_599" x1="36.8925" y1="1.55816" x2="36.8925" y2="31.6024" gradientUnits="userSpaceOnUse">
<stop stop-color="#CACACA"/>
<stop offset="1" stop-color="#FAF6EE"/>
</linearGradient>
<linearGradient id="paint2_linear_9806_599" x1="36.8924" y1="24.6168" x2="36.8924" y2="49.9393" gradientUnits="userSpaceOnUse">
<stop stop-color="#CACACA"/>
<stop offset="1" stop-color="#FAF6EE"/>
</linearGradient>
<linearGradient id="paint3_linear_9806_599" x1="13.4933" y1="24.6168" x2="13.4933" y2="49.9392" gradientUnits="userSpaceOnUse">
<stop stop-color="#CACACA"/>
<stop offset="1" stop-color="#FAF6EE"/>
</linearGradient>
<linearGradient id="paint4_linear_9806_599" x1="25.1898" y1="22.3528" x2="25.1898" y2="1.79275" gradientUnits="userSpaceOnUse">
<stop stop-color="#CACACA"/>
<stop offset="1" stop-color="#FAF6EE"/>
</linearGradient>
<linearGradient id="paint5_linear_9806_599" x1="25.1898" y1="39.2065" x2="25.1898" y2="18.6088" gradientUnits="userSpaceOnUse">
<stop stop-color="#CACACA"/>
<stop offset="1" stop-color="#FAF6EE"/>
</linearGradient>
</defs>
</svg>
