<svg width="30" height="30" viewBox="0 0 30 30" fill="none" xmlns="http://www.w3.org/2000/svg">
<path fill-rule="evenodd" clip-rule="evenodd" d="M28.1601 9.14982C30.5748 6.72565 30.4722 3.54224 28.6692 1.59273C27.7899 0.64214 26.5387 0.0349451 25.1213 0.00146543C23.6987 -0.0321343 22.2248 0.511896 20.8648 1.64976C20.83 1.67885 20.7966 1.70951 20.7646 1.74164L1.31168 21.2722C0.471641 22.1155 0 23.2574 0 24.4478V26.988C0 28.6403 1.33794 29.9997 3.00572 29.9997H5.52393C6.72049 29.9997 7.86779 29.5232 8.71221 28.6754L28.1601 9.14982ZM22.8104 5.68937C22.2247 5.10359 21.2749 5.10359 20.6892 5.68937C20.1034 6.27516 20.1034 7.22489 20.6892 7.81068L22.1891 9.31066C22.7749 9.89644 23.7247 9.89644 24.3104 9.31066C24.8962 8.72487 24.8962 7.77514 24.3104 7.18935L22.8104 5.68937Z" fill="#2B2E3A"/>
</svg>
