<svg width="25" height="25" viewBox="0 0 25 25" fill="none" xmlns="http://www.w3.org/2000/svg">
<path fill-rule="evenodd" clip-rule="evenodd" d="M0.366115 0.366115C0.854268 -0.122038 1.64572 -0.122038 2.13387 0.366115L12.4999 10.7322L22.8661 0.36611C23.3543 -0.12204 24.1457 -0.122036 24.6339 0.36612C25.122 0.854275 25.122 1.64573 24.6339 2.13388L14.2677 12.4999L24.6338 22.866C25.1219 23.3542 25.1219 24.1456 24.6338 24.6338C24.1456 25.1219 23.3542 25.1219 22.866 24.6338L12.4999 14.2677L2.13388 24.6339C1.64573 25.122 0.854275 25.122 0.36612 24.6339C-0.122036 24.1457 -0.12204 23.3543 0.36611 22.8661L10.7322 12.4999L0.366115 2.13387C-0.122038 1.64572 -0.122038 0.854268 0.366115 0.366115Z" fill="#2B2E3A"/>
</svg>
