<svg width="25" height="25" viewBox="0 0 25 25" fill="none" xmlns="http://www.w3.org/2000/svg">
<path fill-rule="evenodd" clip-rule="evenodd" d="M12.5 25C6.60744 25 3.66116 25 1.83059 23.1694C-1.49012e-07 21.3389 0 18.3925 0 12.5C0 6.60744 -1.49012e-07 3.66116 1.83059 1.83059C3.66116 -1.49012e-07 6.60744 0 12.5 0C18.3925 0 21.3389 -1.49012e-07 23.1694 1.83059C25 3.66116 25 6.60744 25 12.5C25 18.3925 25 21.3389 23.1694 23.1694C21.3389 25 18.3925 25 12.5 25ZM12.5 19.6875C13.0177 19.6875 13.4375 19.2677 13.4375 18.75V11.25C13.4375 10.7323 13.0177 10.3125 12.5 10.3125C11.9823 10.3125 11.5625 10.7323 11.5625 11.25V18.75C11.5625 19.2677 11.9823 19.6875 12.5 19.6875ZM12.5 6.25C13.1904 6.25 13.75 6.80965 13.75 7.5C13.75 8.19035 13.1904 8.75 12.5 8.75C11.8096 8.75 11.25 8.19035 11.25 7.5C11.25 6.80965 11.8096 6.25 12.5 6.25Z" fill="white"/>
</svg>
