<svg width="25" height="25" viewBox="0 0 25 25" fill="none" xmlns="http://www.w3.org/2000/svg">
<path fill-rule="evenodd" clip-rule="evenodd" d="M1.83059 1.83059C-1.19209e-07 3.66116 0 6.60744 0 12.5C0 18.3925 -1.19209e-07 21.3389 1.83059 23.1694C3.66116 25 6.60744 25 12.5 25C18.3925 25 21.3389 25 23.1694 23.1694C25 21.3389 25 18.3925 25 12.5C25 6.60744 25 3.66116 23.1694 1.83059C21.3389 -1.19209e-07 18.3925 0 12.5 0C6.60744 0 3.66116 -1.19209e-07 1.83059 1.83059ZM10.6789 6.89655C11.036 6.52163 11.0215 5.9282 10.6465 5.57113C10.2716 5.21404 9.6782 5.22851 9.32113 5.60345L6.42858 8.64062L5.67887 7.85345C5.3218 7.47851 4.72839 7.46404 4.35345 7.82113C3.97851 8.1782 3.96404 8.77161 4.32113 9.14655L5.7497 10.6465C5.92664 10.8324 6.172 10.9375 6.42858 10.9375C6.68515 10.9375 6.9305 10.8324 7.10745 10.6465L10.6789 6.89655ZM13.75 7.8125C13.2323 7.8125 12.8125 8.23224 12.8125 8.75C12.8125 9.26777 13.2323 9.6875 13.75 9.6875H20C20.5177 9.6875 20.9375 9.26777 20.9375 8.75C20.9375 8.23224 20.5177 7.8125 20 7.8125H13.75ZM10.6789 15.6465C11.036 15.2716 11.0215 14.6783 10.6465 14.3211C10.2716 13.964 9.6782 13.9785 9.32113 14.3535L6.42858 17.3906L5.67887 16.6035C5.3218 16.2285 4.72839 16.214 4.35345 16.5711C3.97851 16.9282 3.96404 17.5216 4.32113 17.8965L5.7497 19.3965C5.92664 19.5824 6.172 19.6875 6.42858 19.6875C6.68515 19.6875 6.9305 19.5824 7.10745 19.3965L10.6789 15.6465ZM13.75 16.5625C13.2323 16.5625 12.8125 16.9823 12.8125 17.5C12.8125 18.0177 13.2323 18.4375 13.75 18.4375H20C20.5177 18.4375 20.9375 18.0177 20.9375 17.5C20.9375 16.9823 20.5177 16.5625 20 16.5625H13.75Z" fill="white"/>
</svg>
