<svg width="20" height="25" viewBox="0 0 20 25" fill="none" xmlns="http://www.w3.org/2000/svg">
<path d="M6.49863 0.00216164C6.60452 0.00140707 6.60452 0.00140707 6.71254 0.00063726C6.94447 -0.000619471 7.17633 0.000208712 7.40827 0.00118043C7.57125 0.000986708 7.73423 0.000707816 7.89721 0.000348155C8.23872 -7.44029e-05 8.58021 0.000537352 8.92173 0.00188129C9.35546 0.00350651 9.78915 0.00258127 10.2229 0.000855732C10.5598 -0.000192105 10.8966 0.000153471 11.2335 0.000892418C11.3932 0.00108158 11.5529 0.000857336 11.7125 0.000180604C13.9041 -0.00706349 15.8709 0.475973 17.5329 1.97705C17.5933 2.03154 17.6537 2.08603 17.716 2.14218C19.0725 3.43118 19.9383 5.2672 19.9972 7.14465C19.9993 7.32546 20.0002 7.50629 20 7.68712C19.9999 7.73435 19.9999 7.78159 19.9999 7.83025C19.9932 9.94131 19.1789 11.7798 17.7258 13.2985C16.1307 14.8377 14.1185 15.426 11.9496 15.4117C11.8285 15.4115 11.7075 15.4113 11.5864 15.4111C11.2707 15.4106 10.955 15.4092 10.6392 15.4076C10.3159 15.4061 9.99258 15.4055 9.66925 15.4047C9.03697 15.4032 8.40471 15.4007 7.77243 15.3977C7.77243 15.8951 7.77243 16.3924 7.77243 16.9049C7.9615 16.9037 8.15056 16.9026 8.34535 16.9014C8.97039 16.8979 9.59544 16.8955 10.2205 16.8937C10.5994 16.8926 10.9783 16.8911 11.3572 16.8886C11.723 16.8863 12.0887 16.885 12.4545 16.8844C12.594 16.884 12.7334 16.8833 12.8729 16.8821C13.0684 16.8805 13.2639 16.8803 13.4594 16.8804C13.5169 16.8796 13.5744 16.8789 13.6337 16.8781C14.039 16.8803 14.3393 16.9584 14.6499 17.2385C14.6835 17.2794 14.7172 17.3203 14.7519 17.3624C14.7863 17.4029 14.8207 17.4434 14.8562 17.4852C15.1436 17.9094 15.1438 18.3463 15.0928 18.8426C14.9694 19.2866 14.685 19.5982 14.3034 19.8474C13.9856 20.009 13.6859 20.0104 13.3372 20.0072C13.2769 20.0072 13.2167 20.0072 13.1546 20.0073C12.9562 20.0072 12.7578 20.006 12.5593 20.0049C12.4215 20.0047 12.2836 20.0044 12.1457 20.0043C11.7834 20.0038 11.4211 20.0023 11.0587 20.0008C10.6888 19.9993 10.3188 19.9986 9.94889 19.9979C9.2234 19.9964 8.49792 19.9939 7.77243 19.9909C7.77315 20.0524 7.77315 20.0524 7.77388 20.1151C7.77866 20.5436 7.7819 20.972 7.78426 21.4005C7.78534 21.5602 7.78681 21.7199 7.78868 21.8796C7.7913 22.1097 7.79251 22.3399 7.79346 22.5701C7.79457 22.6409 7.79568 22.7117 7.79683 22.7847C7.79695 23.3047 7.70825 23.6824 7.44051 24.1355C7.0785 24.4785 6.68813 24.6017 6.19353 24.62C5.78893 24.603 5.4465 24.5425 5.11701 24.297C4.77347 23.902 4.60507 23.5445 4.60648 23.0218C4.60649 22.9543 4.60649 22.8868 4.6065 22.8172C4.60687 22.7449 4.60724 22.6726 4.60762 22.5981C4.60772 22.5236 4.60782 22.4492 4.60793 22.3725C4.60833 22.1348 4.60923 21.8972 4.61014 21.6595C4.6105 21.4983 4.61083 21.3371 4.61112 21.1759C4.61191 20.7809 4.61311 20.3859 4.61463 19.9909C4.5729 19.9915 4.53118 19.9922 4.48819 19.9928C4.05157 19.9992 3.61496 20.0035 3.1783 20.0067C3.01562 20.0081 2.85295 20.0101 2.69029 20.0126C2.45565 20.0161 2.22105 20.0177 1.98639 20.0189C1.87836 20.0212 1.87836 20.0212 1.76815 20.0234C1.29882 20.0236 0.928963 19.9493 0.523832 19.7038C0.369082 19.5446 0.369082 19.5446 0.272643 19.3809C0.222686 19.2998 0.222686 19.2998 0.171719 19.2171C-0.0203539 18.8275 -0.0400573 18.3918 0.0570577 17.9705C0.197313 17.5576 0.404268 17.2491 0.771272 17.0018C1.13439 16.8637 1.46811 16.8782 1.85323 16.8838C1.97179 16.8843 1.97179 16.8843 2.09274 16.8848C2.34429 16.886 2.5958 16.8887 2.84733 16.8914C3.01825 16.8925 3.18917 16.8935 3.36008 16.8944C3.77828 16.8967 4.19645 16.9004 4.61463 16.9049C4.61463 16.4075 4.61463 15.9102 4.61463 15.3977C4.37344 15.4011 4.13226 15.4044 3.88377 15.4078C3.64861 15.4101 3.41346 15.4118 3.1783 15.4135C3.01562 15.4149 2.85295 15.4169 2.69029 15.4194C2.45565 15.4229 2.22105 15.4245 1.98639 15.4258C1.87836 15.428 1.87836 15.428 1.76815 15.4303C1.29882 15.4304 0.928963 15.3561 0.523832 15.1107C0.369082 14.9514 0.369082 14.9514 0.272643 14.7877C0.222686 14.7067 0.222686 14.7067 0.171719 14.624C-0.0203539 14.2343 -0.0400573 13.7986 0.0570577 13.3773C0.197313 12.9644 0.404268 12.6559 0.771272 12.4086C1.13439 12.2706 1.46811 12.2851 1.85323 12.2907C1.97179 12.2911 1.97179 12.2911 2.09274 12.2916C2.34429 12.2928 2.5958 12.2955 2.84733 12.2982C3.01825 12.2993 3.18917 12.3003 3.36008 12.3012C3.77828 12.3035 4.19645 12.3071 4.61463 12.3117C4.61443 12.2553 4.61423 12.1988 4.61403 12.1407C4.60927 10.7666 4.60571 9.39244 4.60347 8.01831C4.60236 7.35378 4.60085 6.68926 4.59838 6.02474C4.59624 5.44544 4.59485 4.86614 4.59437 4.28683C4.59409 3.98019 4.59343 3.67356 4.59186 3.36692C4.5904 3.07804 4.58995 2.78918 4.59027 2.50029C4.59022 2.39452 4.58979 2.28875 4.58896 2.18299C4.58412 1.53264 4.61164 1.05463 4.94656 0.487859C5.39028 0.0674904 5.90963 -0.00308665 6.49863 0.00216164ZM7.77243 3.12535C7.77243 6.15684 7.77243 9.18833 7.77243 12.3117C11.9271 12.6329 11.9271 12.6329 15.5772 11.0019C16.4714 10.0567 16.9359 8.81693 16.9041 7.51891C16.8055 6.18694 16.2895 5.10204 15.3081 4.20187C13.2826 2.48916 10.0878 3.12535 7.77243 3.12535Z" fill="#2B2E3A"/>
</svg>
