<svg width="25" height="25" viewBox="0 0 25 25" fill="none" xmlns="http://www.w3.org/2000/svg">
<path fill-rule="evenodd" clip-rule="evenodd" d="M1.83059 1.83059C-1.19209e-07 3.66116 0 6.60744 0 12.5C0 18.3925 -1.19209e-07 21.3389 1.83059 23.1694C3.66116 25 6.60744 25 12.5 25C18.3925 25 21.3389 25 23.1694 23.1694C25 21.3389 25 18.3925 25 12.5C25 6.60744 25 3.66116 23.1694 1.83059C21.3389 -1.19209e-07 18.3925 0 12.5 0C6.60744 0 3.66116 -1.19209e-07 1.83059 1.83059Z" fill="white"/>
<path fill-rule="evenodd" clip-rule="evenodd" d="M5.60811 7C5.94396 7 6.21622 7.27226 6.21622 7.60811V12.473C6.21622 14.019 6.21751 15.1174 6.32953 15.9507C6.43921 16.7664 6.64489 17.2364 6.98801 17.5795C7.33116 17.9227 7.80116 18.1284 8.61691 18.238C9.45015 18.3501 10.5485 18.3514 12.0946 18.3514H12.9054C14.4515 18.3514 15.5498 18.3501 16.3831 18.238C17.1989 18.1284 17.6688 17.9227 18.0119 17.5795C18.3551 17.2364 18.5608 16.7664 18.6705 15.9507C18.7825 15.1174 18.7838 14.019 18.7838 12.473V7.60811C18.7838 7.27226 19.056 7 19.3919 7C19.7277 7 20 7.27226 20 7.60811V12.5187C20 14.0088 20 15.189 19.8758 16.1127C19.748 17.0633 19.4787 17.8327 18.872 18.4395C18.2652 19.0463 17.4958 19.3156 16.5452 19.4434C15.6215 19.5676 14.4412 19.5676 12.9511 19.5676H12.0489C10.5588 19.5676 9.37854 19.5676 8.45484 19.4434C7.50424 19.3156 6.73483 19.0463 6.12805 18.4395M6.12805 18.4395C5.52126 17.8328 5.25197 17.0633 5.12416 16.1127C4.99998 15.189 4.99999 14.0088 5 12.5187V7.60811C5 7.27226 5.27226 7 5.60811 7" fill="#2B2E3A"/>
<path fill-rule="evenodd" clip-rule="evenodd" d="M12.5 7C12.8358 7 13.1081 7.27226 13.1081 7.60811V13.3207L14.4804 11.7959C14.7051 11.5463 15.0896 11.5261 15.3392 11.7507C15.5889 11.9754 15.6091 12.3599 15.3844 12.6095L12.952 15.3122C12.8367 15.4403 12.6724 15.5135 12.5 15.5135C12.3276 15.5135 12.1633 15.4403 12.048 15.3122L9.61557 12.6095C9.39089 12.3599 9.41113 11.9754 9.66076 11.7507C9.9104 11.5261 10.2949 11.5463 10.5196 11.7959L11.8919 13.3207V7.60811C11.8919 7.27226 12.1642 7 12.5 7Z" fill="#2B2E3A"/>
</svg>
