<svg width="25" height="25" viewBox="0 0 25 25" fill="none" xmlns="http://www.w3.org/2000/svg">
<path fill-rule="evenodd" clip-rule="evenodd" d="M1.83059 1.83059C-1.19209e-07 3.66116 0 6.60744 0 12.5C0 18.3925 -1.19209e-07 21.3389 1.83059 23.1694C3.66116 25 6.60744 25 12.5 25C18.3925 25 21.3389 25 23.1694 23.1694C25 21.3389 25 18.3925 25 12.5C25 6.60744 25 3.66116 23.1694 1.83059C21.3389 -1.19209e-07 18.3925 0 12.5 0C6.60744 0 3.66116 -1.19209e-07 1.83059 1.83059Z" fill="white"/>
<path fill-rule="evenodd" clip-rule="evenodd" d="M8.79077 8.31393C8.79077 6.4837 10.2745 5 12.1047 5C13.9349 5 15.4186 6.4837 15.4186 8.31393C15.4186 10.1442 13.9349 11.6279 12.1047 11.6279C10.2745 11.6279 8.79077 10.1442 8.79077 8.31393Z" fill="#2B2E3A"/>
<path fill-rule="evenodd" clip-rule="evenodd" d="M7.90156 13.6611C9.00351 13.0413 10.4906 12.6744 12.1047 12.6744C13.7188 12.6744 15.2059 13.0413 16.3079 13.6611C17.3934 14.2717 18.2093 15.1972 18.2093 16.3371C18.2093 16.3607 18.2093 16.3844 18.2094 16.4083C18.2102 17.2189 18.2111 18.2362 17.3188 18.9628C16.8796 19.3205 16.2653 19.5748 15.4352 19.7428C14.6029 19.9113 13.518 19.9999 12.1047 19.9999C10.6914 19.9999 9.60653 19.9113 8.77418 19.7428C7.94414 19.5748 7.32977 19.3205 6.89061 18.9628C5.99827 18.2362 5.99926 17.2189 6.00005 16.4083C6.00007 16.3844 6.00009 16.3607 6.00009 16.3371C6.00009 15.1972 6.81601 14.2717 7.90156 13.6611Z" fill="#2B2E3A"/>
<path d="M15.7675 10.8951C15.7675 11.5568 16.0565 12.0548 16.4028 12.4323C16.731 12.7902 17.1539 13.0805 17.4304 13.2916L17.4332 13.2938C17.5368 13.3727 17.6703 13.4746 17.8112 13.5542C17.9534 13.6347 18.1504 13.7209 18.3837 13.7209C18.617 13.7209 18.8141 13.6347 18.9563 13.5542C19.0971 13.4746 19.2307 13.3727 19.3342 13.2938L19.3371 13.2916C19.6136 13.0805 20.0364 12.7902 20.3647 12.4323C20.711 12.0548 21 11.5568 21 10.8951C21 10.1971 20.5917 9.58741 19.9951 9.32342C19.4924 9.10092 18.9085 9.14309 18.3837 9.48523C17.859 9.14309 17.2751 9.10092 16.7723 9.32342C16.1758 9.58741 15.7675 10.1971 15.7675 10.8951Z" fill="#2B2E3A"/>
</svg>
