<svg width="25" height="25" viewBox="0 0 25 25" fill="none" xmlns="http://www.w3.org/2000/svg">
<path fill-rule="evenodd" clip-rule="evenodd" d="M1.83059 1.83059C-1.19209e-07 3.66116 0 6.60744 0 12.5C0 18.3925 -1.19209e-07 21.3389 1.83059 23.1694C3.66116 25 6.60744 25 12.5 25C18.3925 25 21.3389 25 23.1694 23.1694C25 21.3389 25 18.3925 25 12.5C25 6.60744 25 3.66116 23.1694 1.83059C21.3389 -1.19209e-07 18.3925 0 12.5 0C6.60744 0 3.66116 -1.19209e-07 1.83059 1.83059Z" fill="white"/>
<path fill-rule="evenodd" clip-rule="evenodd" d="M9.74288 8.25709C9.74288 6.45825 11.2011 5 13 5C14.7988 5 16.2571 6.45825 16.2571 8.25709C16.2571 10.0559 14.7988 11.5142 13 11.5142C11.2011 11.5142 9.74288 10.0559 9.74288 8.25709Z" fill="#2B2E3A"/>
<path fill-rule="evenodd" clip-rule="evenodd" d="M8.86894 13.5125C9.952 12.9033 11.4136 12.5427 13 12.5427C14.5864 12.5427 16.048 12.9033 17.1311 13.5125C18.198 14.1127 18.9999 15.0223 18.9999 16.1427C18.9999 16.1658 18.9999 16.1891 19 16.2126C19.0007 17.0093 19.0017 18.0092 18.1247 18.7234C17.693 19.0748 17.0892 19.3248 16.2734 19.4899C15.4553 19.6555 14.3891 19.7426 13 19.7426C11.6109 19.7426 10.5447 19.6555 9.72659 19.4899C8.91079 19.3248 8.30696 19.0748 7.87533 18.7234C6.9983 18.0092 6.99927 17.0093 7.00005 16.2126C7.00007 16.1891 7.00009 16.1658 7.00009 16.1427C7.00009 15.0223 7.80201 14.1127 8.86894 13.5125Z" fill="#2B2E3A"/>
</svg>
