<svg width="25" height="25" viewBox="0 0 25 25" fill="none" xmlns="http://www.w3.org/2000/svg">
<path fill-rule="evenodd" clip-rule="evenodd" d="M1.83059 1.83059C-1.19209e-07 3.66116 0 6.60744 0 12.5C0 18.3925 -1.19209e-07 21.3389 1.83059 23.1694C3.66116 25 6.60744 25 12.5 25C18.3925 25 21.3389 25 23.1694 23.1694C25 21.3389 25 18.3925 25 12.5C25 6.60744 25 3.66116 23.1694 1.83059C21.3389 -1.19209e-07 18.3925 0 12.5 0C6.60744 0 3.66116 -1.19209e-07 1.83059 1.83059Z" fill="white"/>
<path fill-rule="evenodd" clip-rule="evenodd" d="M17.6146 9.29316C18.09 9.71757 18.1313 10.447 17.7068 10.9223L12.2124 17.0762C11.9935 17.3213 11.6804 17.4615 11.3517 17.4615C11.023 17.4615 10.7099 17.3214 10.491 17.0762L8.29317 14.6146C7.86874 14.1393 7.91002 13.4099 8.38537 12.9855C8.86071 12.561 9.59012 12.6023 10.0145 13.0777L11.3517 14.5752L15.9854 9.38538C16.4099 8.91003 17.1393 8.86874 17.6146 9.29316Z" fill="#2B2E3A"/>
</svg>
