<svg width="30" height="34" viewBox="0 0 30 34" fill="none" xmlns="http://www.w3.org/2000/svg">
<path fill-rule="evenodd" clip-rule="evenodd" d="M3.33333 0C4.25381 0 5 0.746193 5 1.66667V5.48114C6.24982 4.36327 7.68658 3.45535 9.25643 2.80466C12.3078 1.53989 15.6913 1.31767 18.8818 2.17247C22.0724 3.02728 24.8916 4.91132 26.9019 7.5322C28.9123 10.1531 30.0013 13.3642 30 16.6673C29.9996 17.5878 29.2532 18.3337 28.3327 18.3333C27.4122 18.333 26.6663 17.5865 26.6667 16.666C26.6677 14.097 25.8207 11.5994 24.2571 9.56093C22.6935 7.52247 20.5008 6.0571 18.0192 5.39225C15.5377 4.7274 12.9061 4.90025 10.5328 5.88396C9.14396 6.45961 7.88907 7.29411 6.82974 8.33334H11.6667C12.5871 8.33334 13.3333 9.07953 13.3333 10C13.3333 10.9205 12.5871 11.6667 11.6667 11.6667H3.4789C3.45862 11.667 3.43832 11.667 3.418 11.6667H3.33333C2.41286 11.6667 1.66667 10.9205 1.66667 10V1.66667C1.66667 0.746193 2.41286 0 3.33333 0ZM1.66732 15C2.58779 15.0004 3.33369 15.7469 3.33333 16.6673C3.33233 19.2364 4.17935 21.734 5.74293 23.7724C7.30652 25.8109 9.49923 27.2763 11.9808 27.9411C14.4623 28.606 17.0939 28.4331 19.4672 27.4494C20.856 26.8737 22.1109 26.0393 23.1703 25H18.3333C17.4129 25 16.6667 24.2538 16.6667 23.3334C16.6667 22.4129 17.4129 21.6667 18.3333 21.6667H26.5211C26.5414 21.6663 26.5617 21.6663 26.582 21.6667H26.6667C27.5871 21.6667 28.3333 22.4129 28.3333 23.3334V31.6667C28.3333 32.5872 27.5871 33.3334 26.6667 33.3334C25.7462 33.3334 25 32.5872 25 31.6667V27.8522C23.7502 28.9701 22.3134 29.878 20.7436 30.5287C17.6922 31.7935 14.3087 32.0157 11.1181 31.1609C7.92758 30.3061 5.10838 28.422 3.09806 25.8012C1.08774 23.1803 -0.00128499 19.9691 1.13787e-06 16.666C0.000359529 15.7456 0.746842 14.9997 1.66732 15Z" fill="#2B2E3A"/>
</svg>
