<svg width="35" height="35" viewBox="0 0 35 35" fill="none" xmlns="http://www.w3.org/2000/svg">
<path d="M16.4808 0C17.1571 0 17.8334 0 18.5301 0C18.5301 0.67628 18.5301 1.35256 18.5301 2.04933C18.7062 2.07329 18.8824 2.09724 19.0638 2.12191C20.9461 2.41934 22.4436 3.49059 23.9397 4.59888C24.88 5.29505 25.8271 5.94462 26.8641 6.48956C26.9308 6.52468 26.9308 6.52468 26.9989 6.5605C29.2383 7.71899 31.757 8.11191 34.2533 8.17752C34.3205 8.17931 34.3878 8.18109 34.457 8.18293C34.5458 8.18473 34.5458 8.18473 34.6363 8.18656C34.7882 8.19734 34.7882 8.19734 34.9931 8.26565C34.9931 8.94193 34.9931 9.61821 34.9931 10.315C34.5734 10.3182 34.1537 10.3209 33.734 10.3225C33.5922 10.3232 33.4505 10.3241 33.3088 10.3253C32.4364 10.3325 31.5718 10.3077 30.7014 10.2458C30.6068 10.2393 30.5122 10.2328 30.4176 10.2263C30.1894 10.2105 29.9613 10.1945 29.7332 10.1784C29.7483 10.231 29.7634 10.2837 29.779 10.338C30.1469 11.6184 30.5146 12.8988 30.8821 14.1793C31.0598 14.7985 31.2376 15.4177 31.4156 16.0369C31.5706 16.5764 31.7255 17.1159 31.8803 17.6555C31.9623 17.9413 32.0443 18.2272 32.1265 18.5129C32.2039 18.7817 32.281 19.0505 32.358 19.3193C32.3864 19.4182 32.4148 19.5171 32.4433 19.6159C32.482 19.7504 32.5205 19.885 32.559 20.0196C32.5807 20.095 32.6023 20.1705 32.6247 20.2482C32.6705 20.425 32.6705 20.425 32.6705 20.5617C33.437 20.5617 34.2034 20.5617 34.9931 20.5617C35.0362 22.2262 34.9066 23.3738 33.7299 24.6323C32.352 25.9566 30.3521 26.7048 28.4475 26.7259C28.3975 26.7266 28.3474 26.7273 28.2959 26.728C25.9379 26.7531 23.8728 26.3468 22.014 24.7969C21.9677 24.7586 21.9214 24.7202 21.8736 24.6806C21.2846 24.1432 20.8641 23.3707 20.6478 22.611C20.6297 22.5513 20.6297 22.5513 20.6112 22.4905C20.5713 22.2983 20.5718 22.1188 20.5728 21.9225C20.573 21.8511 20.5731 21.7797 20.5733 21.7061C20.5739 21.6158 20.5746 21.5256 20.5752 21.4326C20.5766 21.1452 20.578 20.8578 20.5795 20.5617C21.6953 20.5278 21.6953 20.5278 22.8337 20.4933C23.8482 16.9316 24.8626 13.3699 25.9077 9.70018C25.0624 9.53111 25.0624 9.53111 24.2 9.35863C23.6286 9.22939 23.0577 9.09883 22.4877 8.96407C21.8281 8.80856 21.17 8.66211 20.4997 8.56077C20.4511 8.55342 20.4025 8.54607 20.3525 8.53849C19.747 8.45245 19.1386 8.39801 18.5301 8.33396C18.5301 15.2546 18.5301 22.1752 18.5301 29.3055C18.6428 29.3506 18.7556 29.3956 18.8717 29.4421C18.9603 29.4946 19.0473 29.5499 19.1324 29.608C19.2062 29.658 19.2062 29.658 19.2815 29.709C19.3344 29.7454 19.3874 29.7817 19.4419 29.8191C19.4985 29.8575 19.555 29.8959 19.6132 29.9355C19.7359 30.0188 19.8584 30.1022 19.9809 30.1858C20.3122 30.4117 20.6442 30.6364 20.9763 30.8612C21.045 30.9077 21.1137 30.9542 21.1846 31.0022C21.904 31.4886 22.6288 31.9666 23.3546 32.4435C23.4797 32.5258 23.6047 32.608 23.7297 32.6902C23.791 32.7305 23.8522 32.7708 23.9153 32.8123C23.9759 32.8522 24.0366 32.8921 24.0991 32.9332C24.159 32.9726 24.2189 33.012 24.2806 33.0526C24.8478 33.4257 25.4143 33.7997 25.9797 34.1755C26.079 34.2414 26.1784 34.3073 26.2778 34.3731C26.4125 34.4622 26.5471 34.5517 26.6816 34.6412C26.7213 34.6674 26.7611 34.6937 26.802 34.7207C26.8923 34.781 26.9809 34.8437 27.069 34.907C27.069 34.9295 27.069 34.9521 27.069 34.9753C20.7571 34.9753 14.4451 34.9753 7.94191 34.9753C8.14328 34.8142 8.33264 34.6635 8.54418 34.5206C8.61798 34.4706 8.61798 34.4706 8.69327 34.4196C8.74621 34.384 8.79915 34.3484 8.8537 34.3117C8.91023 34.2735 8.96677 34.2353 9.02501 34.1959C9.21177 34.0699 9.3987 33.9441 9.58564 33.8183C9.6502 33.7748 9.71475 33.7313 9.78126 33.6864C10.8996 32.9329 12.0241 32.1892 13.1514 31.4492C13.7306 31.0688 14.3084 30.6867 14.8814 30.2968C14.957 30.2454 14.957 30.2454 15.0341 30.1929C15.2672 30.034 15.4999 29.8747 15.7322 29.7147C15.8126 29.6597 15.8929 29.6047 15.9733 29.5496C16.0421 29.5021 16.111 29.4547 16.182 29.4057C16.3442 29.3055 16.3442 29.3055 16.4808 29.3055C16.4808 22.3849 16.4808 15.4643 16.4808 8.33396C15.1463 8.49572 13.8834 8.64933 12.5871 8.94876C12.2684 9.02152 11.9496 9.09393 11.6308 9.16638C11.29 9.24387 10.9493 9.32168 10.6088 9.40029C10.5447 9.41501 10.4806 9.42973 10.4146 9.4449C10.2937 9.47268 10.1728 9.5006 10.052 9.52871C9.99704 9.54129 9.94213 9.55387 9.88555 9.56683C9.81447 9.58326 9.81447 9.58326 9.74195 9.60002C9.53017 9.64203 9.31696 9.67016 9.1032 9.70018C9.12696 9.7829 9.12696 9.7829 9.1512 9.86729C9.53621 11.2075 9.92101 12.5478 10.3056 13.8881C10.4916 14.5363 10.6776 15.1845 10.8638 15.8326C11.0261 16.3973 11.1882 16.962 11.3502 17.5268C11.436 17.826 11.5219 18.1252 11.6079 18.4244C11.6888 18.7057 11.7695 18.987 11.8501 19.2684C11.8798 19.3719 11.9095 19.4754 11.9393 19.5789C11.9799 19.7197 12.0202 19.8606 12.0605 20.0014C12.0832 20.0804 12.1058 20.1594 12.1292 20.2407C12.1772 20.425 12.1772 20.425 12.1772 20.5617C12.9211 20.5617 13.665 20.5617 14.4315 20.5617C14.4727 22.5716 14.4727 22.5716 14.1582 23.2258C14.1258 23.2937 14.0934 23.3616 14.06 23.4315C13.2905 24.8762 11.8877 25.7693 10.3755 26.287C10.3208 26.306 10.2661 26.325 10.2098 26.3445C9.24739 26.6567 8.2812 26.7479 7.27587 26.7395C7.22247 26.7393 7.16907 26.7391 7.11406 26.7389C5.16192 26.7277 3.27333 26.2429 1.72559 25.0019C1.67152 24.9591 1.61746 24.9163 1.56175 24.8722C0.791359 24.228 0.2229 23.3252 0.0178136 22.3377C-0.0051081 22.0267 -0.00171639 21.7187 0.00500522 21.407C0.00923197 21.128 0.0134587 20.8491 0.0178136 20.5617C0.784265 20.5391 1.55072 20.5166 2.34039 20.4933C2.41507 20.2295 2.48974 19.9657 2.56667 19.6939C2.67337 19.3171 2.78012 18.9403 2.88688 18.5636C2.90089 18.5141 2.91491 18.4647 2.92934 18.4137C3.46349 16.5289 4.00074 14.645 4.53916 12.7614C4.55765 12.6967 4.57614 12.632 4.5952 12.5653C4.82264 11.7696 5.05017 10.974 5.27777 10.1784C5.22477 10.1825 5.17177 10.1865 5.11716 10.1908C3.9076 10.2824 2.7087 10.3339 1.49504 10.3235C1.3497 10.3228 1.20436 10.3222 1.05902 10.3217C0.711939 10.3203 0.364901 10.3176 0.0178136 10.315C0.0178136 9.6387 0.0178136 8.96242 0.0178136 8.26565C0.215335 8.19981 0.348111 8.1871 0.553896 8.18293C0.654752 8.18025 0.654752 8.18025 0.757645 8.17752C0.830507 8.17561 0.903369 8.17369 0.978439 8.17172C4.92044 8.03566 8.15315 6.79535 11.2892 4.44022C12.8874 3.24056 14.465 2.3013 16.4808 2.04933C16.4808 1.37305 16.4808 0.696774 16.4808 0ZM7.19048 11.203C7.07636 11.6045 6.96224 12.006 6.84813 12.4075C6.83051 12.4695 6.81289 12.5315 6.79473 12.5954C6.58173 13.3449 6.36878 14.0943 6.15596 14.8438C6.13656 14.9122 6.11715 14.9805 6.09716 15.0509C6.01929 15.3251 5.94143 15.5994 5.86357 15.8736C5.65622 16.6039 5.44872 17.3341 5.24052 18.0642C5.15598 18.3607 5.07162 18.6573 4.98732 18.9539C4.95056 19.0831 4.91371 19.2122 4.87675 19.3413C4.82722 19.5143 4.77801 19.6875 4.72888 19.8607C4.71488 19.9093 4.70087 19.9578 4.68645 20.0079C4.63226 20.2 4.59466 20.3608 4.59466 20.5617C6.35299 20.5617 8.11132 20.5617 9.92293 20.5617C9.87831 20.2493 9.83528 19.9859 9.75045 19.6888C9.72909 19.6135 9.70773 19.5381 9.68572 19.4604C9.66233 19.3791 9.63894 19.2978 9.61485 19.214C9.57785 19.084 9.57785 19.084 9.54011 18.9513C9.47279 18.7147 9.40509 18.4782 9.33731 18.2418C9.26643 17.9942 9.19591 17.7466 9.12534 17.4989C8.99181 17.0305 8.85796 16.5621 8.72399 16.0938C8.57142 15.5605 8.41922 15.027 8.26704 14.4935C7.95413 13.3966 7.64076 12.2998 7.32711 11.203C7.28202 11.203 7.23694 11.203 7.19048 11.203ZM27.6838 11.2713C27.345 12.4523 27.0066 13.6333 26.6685 14.8145C26.5115 15.3629 26.3544 15.9113 26.1971 16.4596C26.06 16.9374 25.923 17.4152 25.7864 17.8932C25.714 18.1463 25.6415 18.3994 25.5687 18.6525C25.5003 18.8905 25.4322 19.1287 25.3642 19.3668C25.3272 19.4962 25.29 19.6254 25.2527 19.7547C25.2309 19.8314 25.2091 19.9081 25.1866 19.9872C25.1674 20.054 25.1483 20.1208 25.1285 20.1896C25.0799 20.3613 25.08 20.3613 25.088 20.5617C26.8463 20.5617 28.6047 20.5617 30.4163 20.5617C30.3699 20.2373 30.3221 19.9634 30.2332 19.6542C30.2096 19.5714 30.1859 19.4885 30.1616 19.4032C30.1355 19.313 30.1094 19.2227 30.0833 19.1325C30.0558 19.0368 30.0285 18.9412 30.0011 18.8456C29.9274 18.5885 29.8534 18.3315 29.7792 18.0745C29.7022 17.807 29.6255 17.5395 29.5487 17.272C29.3911 16.723 29.2331 16.1741 29.0749 15.6252C28.9843 15.3108 28.8938 14.9963 28.8034 14.6818C28.4763 13.5448 28.1487 12.408 27.8204 11.2713C27.7754 11.2713 27.7303 11.2713 27.6838 11.2713Z" fill="#2B2E3A"/>
</svg>
