<svg width="25" height="25" viewBox="0 0 25 25" fill="none" xmlns="http://www.w3.org/2000/svg">
<path fill-rule="evenodd" clip-rule="evenodd" d="M1.83059 1.83059C-1.19209e-07 3.66116 0 6.60744 0 12.5C0 18.3925 -1.19209e-07 21.3389 1.83059 23.1694C3.66116 25 6.60744 25 12.5 25C18.3925 25 21.3389 25 23.1694 23.1694C25 21.3389 25 18.3925 25 12.5C25 6.60744 25 3.66116 23.1694 1.83059C21.3389 -1.19209e-07 18.3925 0 12.5 0C6.60744 0 3.66116 -1.19209e-07 1.83059 1.83059Z" fill="white"/>
<path d="M8.70567 6C9.01756 6 9.27039 6.24315 9.27039 6.54308V7.63858C9.7713 7.62924 10.3328 7.62924 10.9645 7.62924H13.9763C14.608 7.62924 15.1695 7.62924 15.6704 7.63858V6.54308C15.6704 6.24315 15.9232 6 16.2352 6C16.547 6 16.7999 6.24315 16.7999 6.54308V7.68664C17.8836 7.77009 18.5951 7.97492 19.1177 8.47759C19.6405 8.98026 19.8535 9.66447 19.9402 10.7067L20 11.2498H5.00062V10.7067C5.08739 9.66447 5.30038 8.98026 5.82307 8.47759C6.34577 7.97492 7.05723 7.77009 8.14096 7.68664V6.54308C8.14096 6.24315 8.39379 6 8.70567 6Z" fill="#2B2E3A"/>
<path d="M19.9996 14.9997V13.4998C19.9996 12.8705 19.9972 11.7487 19.9876 11.2498H5.00751C4.99782 11.7487 5.00028 12.8705 5.00028 13.4998V14.9997C5.00028 17.828 5.00028 19.2421 5.87892 20.1208C6.75756 20.9995 8.17172 20.9995 11 20.9995H13.9999C16.8282 20.9995 18.2424 20.9995 19.121 20.1208C19.9996 19.2421 19.9996 17.828 19.9996 14.9997Z" fill="white"/>
<path d="M17.0002 17.2495C17.0002 17.6637 16.6644 17.9995 16.2502 17.9995C15.836 17.9995 15.5002 17.6637 15.5002 17.2495C15.5002 16.8353 15.836 16.4996 16.2502 16.4996C16.6644 16.4996 17.0002 16.8353 17.0002 17.2495Z" fill="#2B2E3A"/>
<path d="M17.0002 14.2497C17.0002 14.6639 16.6644 14.9996 16.2502 14.9996C15.836 14.9996 15.5002 14.6639 15.5002 14.2497C15.5002 13.8355 15.836 13.4997 16.2502 13.4997C16.6644 13.4997 17.0002 13.8355 17.0002 14.2497Z" fill="#2B2E3A"/>
<path d="M13.2503 17.2495C13.2503 17.6637 12.9145 17.9995 12.5003 17.9995C12.0861 17.9995 11.7503 17.6637 11.7503 17.2495C11.7503 16.8353 12.0861 16.4996 12.5003 16.4996C12.9145 16.4996 13.2503 16.8353 13.2503 17.2495Z" fill="#2B2E3A"/>
<path d="M13.2503 14.2497C13.2503 14.6639 12.9145 14.9996 12.5003 14.9996C12.0861 14.9996 11.7503 14.6639 11.7503 14.2497C11.7503 13.8355 12.0861 13.4997 12.5003 13.4997C12.9145 13.4997 13.2503 13.8355 13.2503 14.2497Z" fill="#2B2E3A"/>
<path d="M9.50045 17.2495C9.50045 17.6637 9.16467 17.9995 8.75048 17.9995C8.33628 17.9995 8.00051 17.6637 8.00051 17.2495C8.00051 16.8353 8.33628 16.4996 8.75048 16.4996C9.16467 16.4996 9.50045 16.8353 9.50045 17.2495Z" fill="#2B2E3A"/>
<path d="M9.50045 14.2497C9.50045 14.6639 9.16467 14.9996 8.75048 14.9996C8.33628 14.9996 8.00051 14.6639 8.00051 14.2497C8.00051 13.8355 8.33628 13.4997 8.75048 13.4997C9.16467 13.4997 9.50045 13.8355 9.50045 14.2497Z" fill="#2B2E3A"/>
</svg>
