<svg width="25" height="25" viewBox="0 0 25 25" fill="none" xmlns="http://www.w3.org/2000/svg">
<path fill-rule="evenodd" clip-rule="evenodd" d="M1.83059 1.83059C-1.19209e-07 3.66116 0 6.60744 0 12.5C0 18.3925 -1.19209e-07 21.3389 1.83059 23.1694C3.66116 25 6.60744 25 12.5 25C18.3925 25 21.3389 25 23.1694 23.1694C25 21.3389 25 18.3925 25 12.5C25 6.60744 25 3.66116 23.1694 1.83059C21.3389 -1.19209e-07 18.3925 0 12.5 0C6.60744 0 3.66116 -1.19209e-07 1.83059 1.83059Z" fill="white"/>
<path fill-rule="evenodd" clip-rule="evenodd" d="M12.5 6.05139C9.14134 6.05139 6.37936 8.5994 6.04877 11.8729C6.0196 12.1617 5.76178 12.3723 5.47292 12.3431C5.18405 12.3139 4.97353 12.0561 5.0027 11.7672C5.38706 7.9613 8.59701 5 12.5 5C16.4034 5 19.6129 7.96871 19.9973 11.7671C20.0265 12.056 19.816 12.3138 19.5272 12.3431C19.2383 12.3723 18.9805 12.1618 18.9512 11.873C18.6206 8.60601 15.8582 6.05139 12.5 6.05139ZM5.64888 14.1149C5.92611 14.0287 6.22076 14.1835 6.30699 14.4608C7.00075 16.6912 8.86896 18.4093 11.1881 18.8821C11.4725 18.9401 11.6561 19.2178 11.5981 19.5023C11.5401 19.7868 11.2625 19.9703 10.978 19.9123C8.27844 19.3619 6.10927 17.365 5.30304 14.773C5.21681 14.4958 5.37165 14.2012 5.64888 14.1149ZM19.3454 14.1508C19.6221 14.2387 19.7751 14.5343 19.6872 14.811C18.8661 17.3948 16.7044 19.3689 14.0135 19.9191C13.729 19.9773 13.4513 19.7939 13.3931 19.5094C13.335 19.225 13.5184 18.9472 13.8029 18.8891C16.1165 18.416 17.9782 16.7172 18.6852 14.4926C18.7731 14.2159 19.0687 14.0629 19.3454 14.1508Z" fill="#2B2E3A"/>
</svg>
