<svg width="25" height="28" viewBox="0 0 25 28" fill="none" xmlns="http://www.w3.org/2000/svg">
<path fill-rule="evenodd" clip-rule="evenodd" d="M1.62718 1.58999C-1.65568e-07 3.17999 0 5.73903 0 10.8571V16.2857C0 21.4038 -1.65568e-07 23.9629 1.62718 25.5528C3.25437 27.1429 5.87328 27.1429 11.1111 27.1429H13.8889C19.1267 27.1429 21.7457 27.1429 23.3728 25.5528C25 23.9629 25 21.4038 25 16.2857V10.8571C25 5.73903 25 3.17999 23.3728 1.58999C21.7457 1.61784e-07 19.1267 0 13.8889 0H11.1111C5.87328 0 3.25437 1.61784e-07 1.62718 1.58999ZM6.94444 9.83929C6.36915 9.83929 5.90278 10.295 5.90278 10.8571C5.90278 11.4193 6.36915 11.875 6.94444 11.875H18.0556C18.6308 11.875 19.0972 11.4193 19.0972 10.8571C19.0972 10.295 18.6308 9.83929 18.0556 9.83929H6.94444ZM6.94444 15.2679C6.36915 15.2679 5.90278 15.7236 5.90278 16.2857C5.90278 16.8478 6.36915 17.3036 6.94444 17.3036H13.8889C14.4642 17.3036 14.9306 16.8478 14.9306 16.2857C14.9306 15.7236 14.4642 15.2679 13.8889 15.2679H6.94444Z" fill="white"/>
</svg>
