<svg width="25" height="25" viewBox="0 0 25 25" fill="none" xmlns="http://www.w3.org/2000/svg">
<path fill-rule="evenodd" clip-rule="evenodd" d="M1.83059 1.83059C-1.19209e-07 3.66116 0 6.60744 0 12.5C0 18.3925 -1.19209e-07 21.3389 1.83059 23.1694C3.66116 25 6.60744 25 12.5 25C18.3925 25 21.3389 25 23.1694 23.1694C25 21.3389 25 18.3925 25 12.5C25 6.60744 25 3.66116 23.1694 1.83059C21.3389 -1.19209e-07 18.3925 0 12.5 0C6.60744 0 3.66116 -1.19209e-07 1.83059 1.83059Z" fill="white"/>
<path fill-rule="evenodd" clip-rule="evenodd" d="M9.70588 13.5883C9.31604 13.5883 9 13.9043 9 14.2942C9 14.6841 9.31604 15.0001 9.70588 15.0001H9.94118V17.1177C9.94118 17.5076 10.2572 17.8236 10.6471 17.8236C11.0369 17.8236 11.3529 17.5076 11.3529 17.1177V15.0001H12.5294C12.9192 15.0001 13.2353 14.6841 13.2353 14.2942C13.2353 13.9043 12.9192 13.5883 12.5294 13.5883H11.3529V13.1177H13.9412C15.6305 13.1177 17 11.7482 17 10.0589C17 8.36954 15.6305 7.00006 13.9412 7.00006L11.7402 7.00003C11.6033 6.99987 11.4609 6.9997 11.3305 7.02034C10.6258 7.13196 10.0731 7.6847 9.96146 8.38946C9.94081 8.51979 9.94098 8.66217 9.94115 8.79913L9.94118 11.706H9.70588C9.31604 11.706 9 12.0219 9 12.4119C9 12.8017 9.31604 13.1177 9.70588 13.1177H9.94118V13.5883H9.70588ZM13.9412 11.706H11.3529V8.83535C11.3529 8.7441 11.353 8.68976 11.3542 8.64881C11.3548 8.62282 11.3559 8.61153 11.356 8.60881C11.3725 8.50935 11.4504 8.43137 11.5499 8.41497C11.5527 8.41469 11.564 8.41372 11.5899 8.41301C11.6309 8.41189 11.6852 8.41182 11.7765 8.41182H13.9412C14.8508 8.41182 15.5882 9.14923 15.5882 10.0589C15.5882 10.9686 14.8508 11.706 13.9412 11.706Z" fill="#2B2E3A"/>
</svg>
