<svg width="80" height="80" viewBox="0 0 80 80" fill="none" xmlns="http://www.w3.org/2000/svg">
<path d="M38.0809 44.4252V73.3593C38.0809 74.2904 36.9543 74.7556 36.2958 74.0971L5.89651 43.6971C5.69873 43.5015 5.58984 43.2341 5.58984 42.9571V8.98519C5.58984 8.06889 6.68392 7.5963 7.34984 8.22297L11.4691 12.0896L12.021 12.6415V40.38L30.4861 58.8423C31.7632 60.1223 33.9521 59.2163 33.9521 57.4067V45.0319L24.8446 35.9245V33.2808C24.8446 32.3474 25.9713 31.8822 26.6298 32.5408L37.775 43.6882C37.9698 43.883 38.0809 44.1482 38.0809 44.4252Z" fill="url(#paint0_linear_9934_996)"/>
<path d="M33.9506 45.031V57.4058C33.9506 59.2154 31.7625 60.1214 30.4847 58.8414L12.0195 40.3791V12.6406L18.0721 18.6932C18.2677 18.8888 18.3788 19.154 18.3788 19.431V37.0421C18.3788 37.3191 18.4877 37.5866 18.6832 37.7821L27.5262 46.6251C27.7388 46.8377 28.0018 46.9347 28.2588 46.9347C28.7958 46.9347 29.3106 46.5162 29.3106 45.8851C29.3106 45.608 29.2018 45.3429 29.0062 45.1473L25.1469 41.2903C24.9514 41.0925 24.8425 40.8273 24.8425 40.5503V35.9236L33.9506 45.031Z" fill="url(#paint1_linear_9934_996)"/>
<path d="M41.4727 44.4252V73.3593C41.4727 74.2904 42.5993 74.7556 43.2578 74.0971L73.6579 43.6971C73.8556 43.5015 73.9645 43.2341 73.9645 42.9571V8.98519C73.9645 8.06889 72.8704 7.5963 72.2045 8.22297L68.0853 12.0896L67.5334 12.6415V40.38L49.0675 58.843C47.7904 60.123 45.6015 59.2171 45.6015 57.4074V45.0319L54.709 35.9245V33.2808C54.709 32.3474 53.5823 31.8822 52.9238 32.5408L41.7793 43.6874C41.5838 43.883 41.4727 44.1482 41.4727 44.4252Z" fill="url(#paint2_linear_9934_996)"/>
<path d="M45.6016 45.031V57.4058C45.6016 59.2154 47.7897 60.1214 49.0675 58.8414L67.5327 40.3791V12.6406L61.4801 18.6932C61.2845 18.8888 61.1734 19.154 61.1734 19.431V37.0421C61.1734 37.3191 61.0645 37.5866 60.869 37.7821L52.0253 46.6251C51.8127 46.8377 51.5497 46.9347 51.2927 46.9347C50.7556 46.9347 50.2408 46.5162 50.2408 45.8851C50.2408 45.608 50.3497 45.3429 50.5453 45.1473L54.4045 41.2903C54.6001 41.0925 54.709 40.8273 54.709 40.5503V35.9236L45.6016 45.031Z" fill="url(#paint3_linear_9934_996)"/>
<path d="M39.779 14.2305L34.5961 27.3875H26.5723C26.5679 26.8927 26.7568 26.3942 27.139 26.0164L38.5027 14.7742C38.8575 14.4238 39.3161 14.2445 39.779 14.2305Z" fill="url(#paint4_linear_9934_996)"/>
<path d="M52.9796 27.3893H44.9559L39.7773 14.2322C40.2855 14.21 40.8025 14.3989 41.1885 14.7848L52.4218 26.0181C52.7996 26.3959 52.984 26.8944 52.9796 27.3893Z" fill="url(#paint5_linear_9934_996)"/>
<path d="M52.9796 27.3867C52.9707 27.8675 52.7818 28.3489 52.4173 28.7126L41.0944 39.9912C40.7299 40.3556 40.2536 40.5393 39.7773 40.5482L44.9559 27.3867H52.9796Z" fill="url(#paint6_linear_9934_996)"/>
<path d="M39.7797 40.5482C39.2849 40.5526 38.7863 40.3682 38.4041 39.9912L27.1345 28.7171C26.7656 28.3482 26.5775 27.8719 26.5723 27.3867H34.596L39.7797 40.5482Z" fill="url(#paint7_linear_9934_996)"/>
<path d="M44.9572 27.3882H34.5957L39.7787 14.2305L44.9572 27.3882Z" fill="url(#paint8_linear_9934_996)"/>
<path d="M44.9572 27.3867L39.7787 40.5482L34.5957 27.3867H44.9572Z" fill="url(#paint9_linear_9934_996)"/>
<defs>
<linearGradient id="paint0_linear_9934_996" x1="-6.54297" y1="12.6675" x2="51.57" y2="70.7805" gradientUnits="userSpaceOnUse">
<stop stop-color="#E3D16B"/>
<stop offset="1" stop-color="#FAF6EE"/>
</linearGradient>
<linearGradient id="paint1_linear_9934_996" x1="-13.4868" y1="1.00343" x2="38.075" y2="52.5652" gradientUnits="userSpaceOnUse">
<stop stop-color="#FAF6EE"/>
<stop offset="1" stop-color="#E3D16B"/>
</linearGradient>
<linearGradient id="paint2_linear_9934_996" x1="86.0965" y1="12.6675" x2="27.9835" y2="70.7805" gradientUnits="userSpaceOnUse">
<stop stop-color="#E3D16B"/>
<stop offset="1" stop-color="#FAF6EE"/>
</linearGradient>
<linearGradient id="paint3_linear_9934_996" x1="93.0389" y1="1.00343" x2="41.4771" y2="52.5652" gradientUnits="userSpaceOnUse">
<stop stop-color="#FAF6EE"/>
<stop offset="1" stop-color="#E3D16B"/>
</linearGradient>
<linearGradient id="paint4_linear_9934_996" x1="33.1754" y1="15.0525" x2="33.1754" y2="32.0069" gradientUnits="userSpaceOnUse">
<stop stop-color="#CACACA"/>
<stop offset="1" stop-color="#FAF6EE"/>
</linearGradient>
<linearGradient id="paint5_linear_9934_996" x1="46.3782" y1="15.0536" x2="46.3782" y2="32.0079" gradientUnits="userSpaceOnUse">
<stop stop-color="#CACACA"/>
<stop offset="1" stop-color="#FAF6EE"/>
</linearGradient>
<linearGradient id="paint6_linear_9934_996" x1="46.3782" y1="28.0632" x2="46.3782" y2="42.3531" gradientUnits="userSpaceOnUse">
<stop stop-color="#CACACA"/>
<stop offset="1" stop-color="#FAF6EE"/>
</linearGradient>
<linearGradient id="paint7_linear_9934_996" x1="33.1761" y1="28.0632" x2="33.1761" y2="42.3531" gradientUnits="userSpaceOnUse">
<stop stop-color="#CACACA"/>
<stop offset="1" stop-color="#FAF6EE"/>
</linearGradient>
<linearGradient id="paint8_linear_9934_996" x1="39.7762" y1="26.7872" x2="39.7762" y2="15.1848" gradientUnits="userSpaceOnUse">
<stop stop-color="#CACACA"/>
<stop offset="1" stop-color="#FAF6EE"/>
</linearGradient>
<linearGradient id="paint9_linear_9934_996" x1="39.7762" y1="36.2964" x2="39.7762" y2="24.6728" gradientUnits="userSpaceOnUse">
<stop stop-color="#CACACA"/>
<stop offset="1" stop-color="#FAF6EE"/>
</linearGradient>
</defs>
</svg>
