<svg width="65" height="39" viewBox="0 0 65 39" fill="none" xmlns="http://www.w3.org/2000/svg">
<path d="M38.8926 19.4462C38.8926 30.1866 30.1857 38.8919 19.4457 38.8919C8.70573 38.8919 0 30.1862 0 19.4462C0 8.70682 8.70584 0.000433548 19.4457 0.000433548C30.1855 0.000433548 38.8926 8.70725 38.8926 19.4462Z" fill="#D9222A"/>
<path d="M45.5529 0C40.5285 0 35.9499 1.90622 32.4988 5.0339C31.7957 5.67187 31.1394 6.35957 30.5352 7.09179H34.4641C35.002 7.7458 35.4972 8.43371 35.9467 9.15142H29.0529C28.6383 9.81463 28.2641 10.5022 27.9325 11.2106H37.0664C37.3799 11.8806 37.6547 12.568 37.8898 13.2694H27.1093C26.8829 13.9447 26.6942 14.6322 26.5441 15.3286H38.4542C38.7455 16.6816 38.8925 18.0619 38.8921 19.4461C38.8921 21.6057 38.5396 23.6832 37.8896 25.6233H27.1091C27.3435 26.325 27.6183 27.0126 27.932 27.6825H37.0662C36.7344 28.3911 36.36 29.0788 35.9453 29.7422H29.0526C29.5018 30.4594 29.9971 31.1469 30.5351 31.8001H34.4632C33.8597 32.5338 33.2032 33.2222 32.4991 33.8599C35.9502 36.987 40.5284 38.8924 45.5532 38.8924C56.2932 38.8924 65 30.1866 65 19.4466C65 8.70769 56.2932 0.000866187 45.5532 0.000866187" fill="#EE9F2D"/>
<path d="M62.4073 30.286C62.4073 29.9394 62.6881 29.6575 63.0352 29.6575C63.3823 29.6575 63.6631 29.9394 63.6631 30.286C63.6631 30.6325 63.3823 30.9144 63.0352 30.9144C62.6881 30.9144 62.4073 30.6325 62.4073 30.286ZM63.0352 30.7635C63.2989 30.7634 63.5126 30.5496 63.5127 30.286C63.5127 30.0225 63.2992 29.8091 63.0358 29.8089H63.0352C62.772 29.8085 62.5585 30.0215 62.5581 30.2846V30.2861C62.5578 30.5496 62.7713 30.7634 63.0347 30.7636L63.0352 30.7635ZM62.9503 30.562H62.8218V30.0099H63.0546C63.1033 30.0099 63.1529 30.0099 63.1959 30.0374C63.2407 30.0677 63.2659 30.121 63.2659 30.176C63.2659 30.2379 63.2293 30.2956 63.1702 30.3181L63.2718 30.5619H63.1293L63.0449 30.3434H62.9506L62.9503 30.562ZM62.9503 30.2489H63.0216C63.0483 30.2489 63.0763 30.2512 63.1003 30.2381C63.1214 30.2245 63.1323 30.1992 63.1323 30.1748C63.1318 30.1522 63.1202 30.1313 63.1011 30.1187C63.0787 30.1047 63.0431 30.1078 63.019 30.1078H62.9503V30.2489ZM14.9047 21.5755C14.6831 21.5497 14.5857 21.5429 14.4335 21.5429C13.2369 21.5429 12.6311 21.9531 12.6311 22.7635C12.6311 23.2631 12.9267 23.5809 13.388 23.5809C14.248 23.5809 14.8677 22.762 14.9047 21.5755ZM16.4399 25.15H14.6908L14.731 24.3184C14.1973 24.9755 13.4856 25.2879 12.5182 25.2879C11.3739 25.2879 10.5894 24.3942 10.5894 23.0965C10.5894 21.1439 11.954 20.0045 14.2962 20.0045C14.5354 20.0045 14.8425 20.0261 15.1565 20.0663C15.2219 19.8018 15.2392 19.6884 15.2392 19.5462C15.2392 19.0145 14.8713 18.8163 13.885 18.8163C12.8523 18.8046 12.0005 19.0624 11.6507 19.1774C11.6728 19.0443 11.9431 17.3727 11.9431 17.3727C12.9953 17.0644 13.689 16.9483 14.47 16.9483C16.2826 16.9483 17.2429 17.7623 17.2411 19.3005C17.2446 19.7127 17.1764 20.2213 17.07 20.8898C16.8868 22.0527 16.4937 24.5429 16.4399 25.15ZM9.70618 25.15H7.5951L8.80431 17.567L6.10412 25.15H4.66557L4.48769 17.6104L3.21662 25.15H1.24041L2.89108 15.2857H5.92667L6.11084 20.8072L7.96246 15.2857H11.3389L9.70618 25.15ZM48.1611 21.5755C47.9404 21.5497 47.8425 21.5429 47.6907 21.5429C46.4946 21.5429 45.8887 21.9531 45.8887 22.7635C45.8887 23.2631 46.184 23.5809 46.6452 23.5809C47.5053 23.5809 48.1254 22.762 48.1611 21.5755ZM49.6977 25.15H47.9485L47.9882 24.3184C47.4545 24.9755 46.7423 25.2879 45.7758 25.2879C44.6313 25.2879 43.8475 24.3942 43.8475 23.0965C43.8475 21.1439 45.2112 20.0045 47.5539 20.0045C47.7931 20.0045 48.0995 20.0261 48.4134 20.0663C48.4788 19.8018 48.496 19.6884 48.496 19.5462C48.496 19.0145 48.1286 18.8163 47.1423 18.8163C46.1096 18.8046 45.2587 19.0624 44.9075 19.1774C44.9296 19.0443 45.201 17.3727 45.201 17.3727C46.2531 17.0644 46.9464 16.9483 47.7266 16.9483C49.54 16.9483 50.5003 17.7623 50.4985 19.3005C50.5019 19.7127 50.4338 20.2213 50.3274 20.8898C50.145 22.0527 49.751 24.5429 49.6977 25.15ZM25.8222 25.0281C25.2445 25.21 24.794 25.2879 24.3055 25.2879C23.2263 25.2879 22.6373 24.6677 22.6373 23.5257C22.6219 23.1713 22.7926 22.2387 22.9267 21.3875C23.0486 20.6382 23.842 15.9136 23.842 15.9136H25.9405L25.6953 17.1277H26.9627L26.6765 19.0556H25.4045C25.1607 20.5813 24.8136 22.4817 24.8096 22.7335C24.8096 23.1469 25.0303 23.3275 25.5323 23.3275C25.7729 23.3275 25.9591 23.3029 26.1015 23.2517L25.8222 25.0281ZM32.2563 24.9631C31.5355 25.1835 30.8399 25.29 30.1028 25.2881C27.7537 25.2859 26.5292 24.059 26.5292 21.7097C26.5292 18.9675 28.087 16.9488 30.2016 16.9488C31.9317 16.9488 33.0367 18.079 33.0367 19.8517C33.0367 20.4398 32.9609 21.014 32.778 21.8246H28.5992C28.4578 22.9882 29.2026 23.4731 30.4232 23.4731C31.1745 23.4731 31.8519 23.3183 32.6052 22.968L32.2563 24.9631ZM31.0768 20.2073C31.0884 20.0402 31.2994 18.7755 30.1004 18.7755C29.4319 18.7755 28.9539 19.2851 28.7592 20.2073H31.0768ZM17.7063 19.6638C17.7063 20.6786 18.1984 21.3783 19.3142 21.9037C20.1692 22.3055 20.3014 22.4248 20.3014 22.7888C20.3014 23.289 19.9245 23.5147 19.089 23.5147C18.4593 23.5147 17.8734 23.4164 17.1977 23.1982C17.1977 23.1982 16.9201 24.9663 16.9074 25.0509C17.3873 25.1556 17.8152 25.2525 19.1043 25.2881C21.3319 25.2881 22.3606 24.44 22.3606 22.6069C22.3606 21.5046 21.9299 20.8578 20.8725 20.3716C19.9873 19.9653 19.8858 19.8746 19.8858 19.5C19.8858 19.0663 20.2365 18.845 20.919 18.845C21.3333 18.845 21.8994 18.8892 22.4356 18.9655L22.7362 17.1049C22.1896 17.0182 21.3608 16.9487 20.8783 16.9487C18.5166 16.9488 17.6991 18.1824 17.7063 19.6638ZM42.5243 17.1596C43.1106 17.1596 43.6573 17.3135 44.4106 17.6927L44.756 15.5517C44.4468 15.4303 43.358 14.7176 42.4358 14.7176C41.023 14.7176 39.8288 15.4186 38.9887 16.5755C37.7635 16.1697 37.2599 16.9898 36.6425 17.8069L36.094 17.9346C36.1355 17.6656 36.173 17.3984 36.1603 17.128H34.2216C33.9567 19.6106 33.4873 22.1251 33.1197 24.6111L33.024 25.1501H35.136C35.4885 22.8596 35.6817 21.3931 35.7991 20.4006L36.5944 19.9582C36.7132 19.5164 37.085 19.3669 37.8312 19.385C37.7309 19.9275 37.6807 20.4782 37.6814 21.0299C37.6814 23.6543 39.0973 25.2882 41.3701 25.2882C41.9556 25.2882 42.4579 25.2111 43.2357 25.0003L43.6073 22.7514C42.9077 23.096 42.3334 23.2581 41.8134 23.2581C40.5861 23.2581 39.8435 22.3521 39.8435 20.8547C39.8435 18.6825 40.9481 17.1596 42.5243 17.1596Z" fill="black"/>
<path d="M10.3144 24.5638H8.20285L9.41304 16.9818L6.71273 24.5638H5.27375L5.09587 17.0252L3.8248 24.5638H1.8487L3.49937 14.701H6.53496L6.62032 20.8068L8.66825 14.701H11.9472L10.3144 24.5638Z" fill="white"/>
<path d="M60.3977 15.2862L59.9296 18.1363C59.3523 17.3766 58.7321 16.8268 57.9133 16.8268C56.8481 16.8268 55.8785 17.6344 55.2438 18.8228C54.36 18.6395 53.4458 18.3285 53.4458 18.3285L53.4453 18.3358C53.5166 17.6713 53.5451 17.266 53.5387 17.1283H51.5996C51.3355 19.611 50.866 22.1255 50.4992 24.6114L50.4025 25.1504H52.5141C52.7993 23.2984 53.0176 21.7606 53.1785 20.5408C53.8998 19.889 54.261 19.3203 54.9899 19.3582C54.6672 20.1388 54.4781 21.0377 54.4781 21.96C54.4781 23.9656 55.4927 25.2886 57.0275 25.2886C57.8012 25.2886 58.3947 25.0219 58.9739 24.4034L58.875 25.1491H60.8721L62.48 15.2863L60.3977 15.2862ZM57.7575 23.2964C57.0388 23.2964 56.676 22.7647 56.676 21.7152C56.676 20.1384 57.3554 19.0204 58.3132 19.0204C59.0385 19.0204 59.4312 19.5734 59.4312 20.5922C59.4313 22.1825 58.7411 23.2964 57.7575 23.2964Z" fill="black"/>
<path d="M15.5122 20.991C15.291 20.9654 15.193 20.9586 15.0414 20.9586C13.8447 20.9586 13.2394 21.3689 13.2394 22.1791C13.2394 22.6779 13.535 22.9967 13.9954 22.9967C14.8563 22.9966 15.4761 22.1778 15.5122 20.991ZM17.0481 24.5643H15.299L15.3387 23.7341C14.8056 24.3899 14.0929 24.7037 13.1265 24.7037C11.9817 24.7037 11.1976 23.8099 11.1976 22.5122C11.1976 20.5588 12.5617 19.4202 14.9044 19.4202C15.1436 19.4202 15.4506 19.4418 15.7644 19.482C15.8298 19.2176 15.847 19.1043 15.847 18.9612C15.847 18.4294 15.4796 18.2322 14.4933 18.2322C13.4601 18.2205 12.6087 18.4782 12.2585 18.592C12.2806 18.4593 12.551 16.7896 12.551 16.7896C13.6027 16.48 14.2973 16.364 15.0773 16.364C16.8905 16.364 17.8511 17.1783 17.8493 18.7153C17.8525 19.1292 17.7839 19.6375 17.6777 20.305C17.495 21.4668 17.1015 23.9585 17.0481 24.5643ZM45.3641 14.9668L45.0185 17.1082C44.2655 16.7295 43.7185 16.5752 43.1327 16.5752C41.5564 16.5752 40.4515 18.0982 40.4515 20.2701C40.4515 21.7673 41.1943 22.673 42.4214 22.673C42.9414 22.673 43.5151 22.5113 44.2147 22.1665L43.8441 24.4144C43.0659 24.6264 42.5641 24.7037 41.9781 24.7037C39.7056 24.7037 38.2893 23.0696 38.2893 20.4452C38.2893 16.919 40.2456 14.4544 43.0438 14.4544C43.9654 14.4545 45.0545 14.8454 45.3641 14.9668ZM48.7704 20.991C48.5493 20.9654 48.4518 20.9586 48.2995 20.9586C47.1034 20.9586 46.4976 21.3689 46.4976 22.1791C46.4976 22.6779 46.7933 22.9967 47.2541 22.9967C48.1141 22.9966 48.7343 22.1778 48.7704 20.991ZM50.3064 24.5643H48.5568L48.597 23.7341C48.0635 24.3899 47.3512 24.7037 46.3847 24.7037C45.2404 24.7037 44.456 23.8099 44.456 22.5122C44.456 20.5588 45.8205 19.4202 48.1623 19.4202C48.402 19.4202 48.7085 19.4418 49.0225 19.482C49.0876 19.2176 49.1052 19.1043 49.1052 18.9612C49.1052 18.4294 48.7376 18.2322 47.7516 18.2322C46.7188 18.2205 45.867 18.4782 45.5167 18.592C45.5388 18.4593 45.8096 16.7896 45.8096 16.7896C46.8614 16.48 47.5555 16.364 48.3355 16.364C50.1491 16.364 51.1092 17.1783 51.107 18.7153C51.1105 19.1292 51.0424 19.6375 50.9359 20.305C50.7537 21.4668 50.3593 23.9585 50.3064 24.5643ZM26.4309 24.4428C25.8526 24.6247 25.4022 24.7037 24.9143 24.7037C23.8351 24.7037 23.246 24.0834 23.246 22.9413C23.2311 22.5861 23.4018 21.6543 23.5358 20.8033C23.6572 20.053 24.4507 15.3288 24.4507 15.3288H26.5489L26.3041 16.5434H27.381L27.0944 18.4704H26.0137C25.77 19.9971 25.4219 21.8959 25.4183 22.1483C25.4183 22.5632 25.6394 22.7422 26.141 22.7422C26.3816 22.7422 26.5676 22.7188 26.7102 22.6673L26.4309 24.4428ZM32.8649 24.3787C32.1445 24.5989 31.448 24.705 30.7114 24.7037C28.3622 24.7014 27.1378 23.4745 27.1378 21.1251C27.1378 18.382 28.6955 16.3639 30.8102 16.3639C32.5404 16.3639 33.6454 17.4937 33.6454 19.2672C33.6454 19.8559 33.5695 20.43 33.3871 21.2402H29.2083C29.0668 22.4038 29.8116 22.8892 31.0323 22.8892C31.783 22.8892 32.4609 22.7338 33.2139 22.3825L32.8649 24.3787ZM31.6851 19.6216C31.6976 19.455 31.9082 18.1897 30.7087 18.1897C30.0406 18.1897 29.5626 18.7007 29.368 19.6216H31.6851ZM18.3146 19.0794C18.3146 20.0941 18.8067 20.793 19.9225 21.3191C20.7775 21.721 20.9096 21.8404 20.9096 22.2044C20.9096 22.7045 20.5323 22.9302 19.6976 22.9302C19.0675 22.9302 18.4816 22.8318 17.8054 22.6137C17.8054 22.6137 17.5287 24.3818 17.516 24.4663C17.9949 24.5711 18.4233 24.6667 19.7125 24.7037C21.9404 24.7037 22.9688 23.8555 22.9688 22.0229C22.9688 20.92 22.5386 20.2733 21.4807 19.7872C20.5959 19.38 20.4934 19.2906 20.4934 18.9156C20.4934 18.4822 20.8451 18.2592 21.5271 18.2592C21.9411 18.2592 22.5071 18.3048 23.0442 18.3811L23.3444 16.52C22.7982 16.4333 21.9695 16.3639 21.4869 16.3639C19.1249 16.3639 18.3078 17.5966 18.3146 19.0794ZM61.4798 24.5643H59.4824L59.5817 23.8175C59.0025 24.4369 58.409 24.7037 57.6352 24.7037C56.1006 24.7037 55.0864 23.3806 55.0864 21.375C55.0864 18.7068 56.6595 16.4576 58.5214 16.4576C59.3403 16.4576 59.9599 16.792 60.5368 17.5513L61.0053 14.7013H63.0876L61.4798 24.5643ZM58.3657 22.7108C59.3488 22.7108 60.0394 21.5968 60.0394 20.0076C60.0394 18.9887 59.6463 18.4358 58.9209 18.4358C57.9636 18.4358 57.2835 19.5532 57.2835 21.1305C57.2834 22.1798 57.6471 22.7108 58.3657 22.7108ZM52.2079 16.5435C51.9434 19.0262 51.4741 21.5409 51.107 24.0253L51.0103 24.5644H53.1219C53.8771 19.6596 54.0598 18.7017 55.2439 18.8217C55.4326 17.8178 55.7836 16.9386 56.0454 16.4949C55.1611 16.3107 54.6673 16.8104 54.0209 17.7597C54.0719 17.3493 54.1653 16.9507 54.1468 16.5436L52.2079 16.5435ZM34.8291 16.5435C34.5641 19.0262 34.0947 21.5409 33.7277 24.0253L33.6315 24.5644H35.744C36.4983 19.6596 36.6806 18.7017 37.864 18.8217C38.0536 17.8178 38.4047 16.9386 38.6656 16.4949C37.7823 16.3107 37.2879 16.8104 36.6421 17.7597C36.6931 17.3493 36.7855 16.9507 36.7679 16.5436L34.8291 16.5435ZM62.4074 23.9362C62.4069 23.5897 62.6875 23.3085 63.034 23.308H63.0353C63.3816 23.3076 63.6629 23.5882 63.6632 23.9345V23.9362C63.6631 24.283 63.3821 24.564 63.0353 24.5643C62.6885 24.564 62.4075 24.283 62.4074 23.9362ZM63.0353 24.4135C63.2986 24.4137 63.5122 24.2001 63.5123 23.9369V23.9365C63.5126 23.6729 63.2991 23.4592 63.0357 23.4589H63.0353C62.7715 23.459 62.5579 23.6728 62.5577 23.9365C62.558 24.1999 62.7717 24.4135 63.0353 24.4135ZM62.9503 24.2108H62.8217V23.6602H63.0549C63.1032 23.6602 63.1534 23.6612 63.1953 23.6877C63.2405 23.7184 63.2661 23.7708 63.2661 23.8258C63.2661 23.888 63.2296 23.9462 63.1699 23.9684L63.2719 24.2107H63.1289L63.0445 23.993H62.9502L62.9503 24.2108ZM62.9503 23.8989H63.0211C63.0477 23.8989 63.0767 23.9009 63.1001 23.888C63.1213 23.8745 63.1321 23.8489 63.1321 23.8243C63.1312 23.8016 63.1198 23.7806 63.101 23.7677C63.0789 23.755 63.0423 23.7586 63.0184 23.7586H62.9502L62.9503 23.8989Z" fill="white"/>
</svg>
