<svg width="100" height="28" viewBox="0 0 100 28" fill="none" xmlns="http://www.w3.org/2000/svg">
<path d="M0 0.00444203H9.38156C10.2344 0.00444203 12.793 -0.279848 13.9302 3.70021C14.7831 6.25882 15.9202 10.2389 17.626 16.209H18.1945C19.9003 9.95458 21.3217 5.69024 21.8903 3.70021C23.0275 -0.279848 25.8704 0.00444203 27.0075 0.00444203H35.8205V27.2963H26.7232V11.0917H26.1546L21.3217 27.2963H14.4988L9.66585 11.0917H8.81298V27.2963H0M39.5163 0.00444203H48.6135V16.209H49.4664L55.4365 2.84734C56.5736 0.288732 59.1322 0.00444203 59.1322 0.00444203H67.6609V27.2963H58.5637V11.0917H57.9951L52.025 24.4534C50.8878 27.012 48.0449 27.2963 48.0449 27.2963H39.5163M79.8854 19.0519V27.2963H71.3567V13.0818H99.2171C98.0799 16.4932 94.0999 19.0519 89.5512 19.0519" fill="#0F754E"/>
<path d="M99.7857 11.376C100.923 6.25882 97.5113 0.00444203 90.1198 0.00444203H70.7881C71.3567 5.97453 76.4739 11.376 81.8754 11.376" fill="url(#paint0_linear_9806_870)"/>
<defs>
<linearGradient id="paint0_linear_9806_870" x1="96.3742" y1="-3.69132" x2="73.631" y2="-3.69132" gradientUnits="userSpaceOnUse">
<stop stop-color="#1F5CD7"/>
<stop offset="1" stop-color="#02AEFF"/>
</linearGradient>
</defs>
</svg>
