<svg width="130" height="36" viewBox="0 0 130 36" fill="none" xmlns="http://www.w3.org/2000/svg">
<path d="M103.065 10.7124L107.873 7.11914H91.7715V28.6461H107.873V25.0498H96.3705V19.5554H106.201V15.9621H96.3705V10.7124H103.065Z" fill="white"/>
<path d="M79.6086 15.5025H74.0307V10.7124H82.9542L87.7652 7.11914H69.4316V28.6461H79.0147C84.3838 28.6461 87.4846 26.1779 87.4846 21.8803C87.4846 17.7587 84.6972 15.5025 79.6086 15.5025ZM78.8416 25.0498H74.0307V19.0958H78.8416C81.7694 19.0958 83.1273 20.0836 83.1273 22.0922C83.1273 24.1007 81.6649 25.0498 78.8416 25.0498Z" fill="white"/>
<path d="M120.902 7.11914H112.154V28.6461H116.753V22.5488H120.938C126.513 22.5488 129.998 19.5912 129.998 14.834C129.998 10.0767 126.513 7.11914 120.902 7.11914ZM120.797 18.9555H116.721V10.7124H120.797C123.761 10.7124 125.364 12.1927 125.364 14.834C125.364 17.4752 123.761 18.9555 120.797 18.9555Z" fill="white"/>
<path d="M61.5515 23.9838C60.3338 24.6553 58.9729 25.0075 57.5791 25.0075C53.4308 25.0075 50.4344 22.0111 50.4344 17.8896C50.4344 13.768 53.4308 10.7716 57.5791 10.7716C59.0773 10.7388 60.5427 11.2312 61.7604 12.1117L65.0731 9.64649L64.8642 9.43459C62.9482 7.70659 60.3666 6.82617 57.4389 6.82617C54.2694 6.82617 51.3745 7.91848 49.2853 9.89121C47.1932 11.9356 46.0084 14.7887 46.077 17.7493C46.0412 20.7427 47.1932 23.6317 49.2853 25.7447C51.4789 27.8248 54.4067 28.9888 57.406 28.9172C60.7158 28.9172 63.6078 27.7532 65.5596 25.6402L62.599 23.4198L61.5515 23.9838Z" fill="white"/>
<path d="M31.6785 6.97461C32.5141 8.06692 33.2125 9.26369 33.8034 10.5321L17.7022 22.5445L10.9395 18.2469V13.1047L17.6664 17.3665L31.6785 6.97461Z" fill="white"/>
<path d="M4.07677 17.8987C4.07677 17.6509 4.07677 17.442 4.11258 17.1943L0.0358135 16.9824C0.0358135 17.2659 0 17.5823 0 17.8628C0 22.7962 1.98765 27.2699 5.19296 30.511L8.0849 27.5862C5.61078 25.121 4.07677 21.7038 4.07677 17.8987Z" fill="white"/>
<path d="M17.6558 4.15279C17.9005 4.15279 18.1094 4.15279 18.3541 4.18861L18.563 0.0670628C18.2825 0.0670628 17.9691 0.03125 17.6916 0.03125C12.812 0.03125 8.38603 2.03979 5.17773 5.28092L8.06967 8.20569C10.511 5.70471 13.9252 4.15279 17.6558 4.15279Z" fill="white"/>
<path d="M17.6709 31.6349C17.4262 31.6349 17.2173 31.6349 16.9726 31.5991L16.7637 35.7207C17.0442 35.7207 17.3576 35.7565 17.6351 35.7565C22.5147 35.7565 26.9437 33.7479 30.149 30.5068L27.257 27.582C24.8157 30.1188 21.4344 31.6349 17.6709 31.6349Z" fill="white"/>
<path d="M25.3507 6.55388L28.8007 3.98127C25.7685 1.51611 21.9006 0 17.6836 0V4.12154C20.5427 4.15736 23.1899 5.03777 25.3507 6.55388Z" fill="white"/>
<path d="M35.3888 17.9006C35.3888 16.8083 35.2844 15.7518 35.1083 14.6953L31.3091 17.5485C31.3091 17.6529 31.3091 17.7962 31.3091 17.9006C31.3091 21.9535 29.5661 25.5826 26.8145 28.0836L29.5661 31.1486C33.1236 27.9075 35.3888 23.1503 35.3888 17.9006Z" fill="white"/>
<path d="M17.6712 31.6332C13.663 31.6332 10.0727 29.8724 7.59862 27.0879L4.56641 29.8724C7.80753 33.5015 12.4782 35.7548 17.6712 35.7548V31.6332Z" fill="white"/>
<path d="M8.57436 7.71934L5.8197 4.6543C2.22939 7.93123 0 12.6526 0 17.9023H4.07677C4.07677 13.8852 5.8197 10.2233 8.57436 7.71934Z" fill="white"/>
</svg>
