<svg width="15" height="15" viewBox="0 0 15 15" fill="none" xmlns="http://www.w3.org/2000/svg">
<path fill-rule="evenodd" clip-rule="evenodd" d="M6.00001 0C2.68629 0 0 2.68629 0 6.00001C0 9.31374 2.68629 12 6.00001 12C7.38653 12 8.66326 11.5297 9.67921 10.7399L13.7197 14.7803C14.0126 15.0732 14.4875 15.0732 14.7803 14.7803C15.0732 14.4875 15.0732 14.0126 14.7803 13.7197L10.7399 9.67921C11.5297 8.66326 12 7.38653 12 6.00001C12 2.68629 9.31374 0 6.00001 0Z" fill="black"/>
<path fill-rule="evenodd" clip-rule="evenodd" d="M6.00001 0C2.68629 0 0 2.68629 0 6.00001C0 9.31374 2.68629 12 6.00001 12C7.38653 12 8.66326 11.5297 9.67921 10.7399L13.7197 14.7803C14.0126 15.0732 14.4875 15.0732 14.7803 14.7803C15.0732 14.4875 15.0732 14.0126 14.7803 13.7197L10.7399 9.67921C11.5297 8.66326 12 7.38653 12 6.00001C12 2.68629 9.31374 0 6.00001 0Z" fill="black"/>
</svg>
