<svg width="35" height="8" viewBox="0 0 35 8" fill="none" xmlns="http://www.w3.org/2000/svg">
<path d="M7.77778 3.88889C7.77778 6.03672 6.03666 7.77778 3.88889 7.77778C1.74111 7.77778 0 6.03672 0 3.88889C0 1.74106 1.74111 0 3.88889 0C6.03666 0 7.77778 1.74106 7.77778 3.88889Z" fill="white"/>
<path d="M35 3.88889C35 6.03672 33.2589 7.77778 31.1111 7.77778C28.9633 7.77778 27.2222 6.03672 27.2222 3.88889C27.2222 1.74106 28.9633 0 31.1111 0C33.2589 0 35 1.74106 35 3.88889Z" fill="white"/>
<path d="M21.3889 3.88889C21.3889 6.03672 19.6478 7.77778 17.5 7.77778C15.3522 7.77778 13.6111 6.03672 13.6111 3.88889C13.6111 1.74106 15.3522 0 17.5 0C19.6478 0 21.3889 1.74106 21.3889 3.88889Z" fill="white"/>
</svg>
