<svg width="120" height="37" viewBox="0 0 120 37" fill="none" xmlns="http://www.w3.org/2000/svg">
<path d="M59.7448 15.7037C58.9168 15.3852 57.834 15.2897 56.6556 15.2897H50.0946V13.2513H61.3691V9.74805H45.4766V24.908H56.2415C57.7385 24.908 58.8529 24.7806 59.6812 24.462C61.4329 23.7931 62.6112 22.1689 62.6112 20.0351C62.6112 17.8695 61.4965 16.3725 59.7448 15.7037ZM57.4517 20.9587C57.197 21.0543 56.8466 21.086 56.4006 21.086H50.0946V18.6656H56.4006C56.9104 18.6656 57.3242 18.6976 57.6428 18.8567C58.0249 19.0479 58.2161 19.3982 58.2161 19.8439C58.2161 20.2898 57.9932 20.7675 57.4517 20.9587Z" fill="#333333"/>
<path d="M75.5522 9.74805H68.8004L62.5898 24.908H67.8131L68.673 22.7104H75.6796L76.5715 24.908H81.7629L75.5522 9.74805ZM69.8194 19.3662L72.0172 13.2513H72.3674L74.565 19.3662H69.8194Z" fill="#333333"/>
<path d="M87.7077 19.2709V24.908H83.0898V9.74805H87.7077V15.2897H95.1285V9.74805H99.7466V24.908H95.1285V19.2709H87.7077Z" fill="#333333"/>
<path d="M107.069 19.1753V24.908H102.451V9.74805H107.069V15.449H108.343L113.917 9.74805H119.713L112.324 17.0095L120 24.908H113.853L108.343 19.1753H107.069Z" fill="#333333"/>
<path d="M0 0H36.8167V18.5161C36.8167 23.2628 34.2844 27.6491 30.1739 30.0227L18.4083 36.8166L6.64281 30.0227C2.53219 27.6491 0 23.2628 0 18.5161V0Z" fill="white"/>
<path fill-rule="evenodd" clip-rule="evenodd" d="M10.0977 9.74805V15.5069C10.8852 14.6177 12.317 14.0158 13.9541 14.0158H15.7332V20.7105C15.7332 22.4916 15.2492 24.0505 14.5312 24.908H22.2698C21.5533 24.0497 21.0705 22.4927 21.0705 20.7139V14.0158H22.8496C24.4867 14.0158 25.9185 14.6177 26.7061 15.5069V9.74805H10.0977Z" fill="#333333"/>
</svg>
