<svg width="100" height="31" viewBox="0 0 100 31" fill="none" xmlns="http://www.w3.org/2000/svg">
<path d="M13.1476 0.605189H0.103395L0 1.22268C10.1483 3.67928 16.863 9.61598 19.651 16.7501L16.8146 3.11167C16.3251 1.23238 14.9049 0.671439 13.1479 0.605945" fill="#F2AE14"/>
<path d="M35.3243 30.2849L40.3817 0.606723H48.471L43.4098 30.2849H35.3243ZM72.6358 1.2465C71.0335 0.645231 68.522 0 65.3859 0C57.3924 0 51.7622 4.02526 51.714 9.79429C51.669 14.0588 55.7338 16.4379 58.8021 17.8574C61.9511 19.3125 63.0095 20.24 62.9943 21.5388C62.9741 23.5283 60.4798 24.4367 58.1545 24.4367C54.917 24.4367 53.1968 23.9869 50.5401 22.8793L49.4974 22.4077L48.3623 29.0513C50.2518 29.8801 53.7455 30.5975 57.3734 30.6348C65.8769 30.6348 71.3972 26.6555 71.4599 20.4947C71.4901 17.1185 69.335 14.5495 64.6679 12.4311C61.8404 11.0582 60.1088 10.1421 60.1272 8.75185C60.1272 7.51824 61.5929 6.19913 64.7602 6.19913C67.4051 6.15804 69.3217 6.7349 70.8147 7.33616L71.5395 7.67864L72.6358 1.2465ZM93.4526 0.606267H87.202C85.2657 0.606267 83.8163 1.13476 82.9661 3.06742L70.9522 30.2654H79.4468C79.4468 30.2654 80.8353 26.6085 81.1494 25.8054C82.0777 25.8054 90.3299 25.8182 91.5095 25.8182C91.7515 26.8573 92.4937 30.2654 92.4937 30.2654H100L93.4526 0.605358V0.606267ZM83.5351 19.7707C84.2043 18.0607 86.7582 11.4742 86.7582 11.4742C86.7106 11.5532 87.4224 9.75593 87.8307 8.64163L88.3774 11.2004C88.3774 11.2004 89.9263 18.2848 90.2501 19.7702H83.5351V19.7707ZM28.4571 0.606267L20.5374 20.8455L19.6937 16.7326C18.2192 11.9913 13.6257 6.85451 8.4904 4.28284L15.7321 30.2376L24.291 30.2281L37.0264 0.605964L28.4571 0.605814" fill="#0E4595"/>
</svg>
