<svg width="150" height="32" viewBox="0 0 150 32" fill="none" xmlns="http://www.w3.org/2000/svg">
<path d="M132.918 16.0116C132.918 11.8474 129.767 8.47898 125.316 8.47898C120.954 8.47898 117.847 11.718 117.847 16.1686C117.847 20.6415 121.042 23.9028 125.625 23.9028C128.533 23.9028 130.979 22.6021 132.499 19.9583L129.415 18.526C128.688 19.8479 127.101 20.7073 125.625 20.7073C123.753 20.7073 121.594 19.2973 121.461 17.3367H132.808C132.88 16.8987 132.917 16.4556 132.918 16.0116ZM121.527 14.7385C121.792 12.7556 123.157 11.456 125.339 11.456C127.498 11.456 128.82 12.7291 128.996 14.7385H121.527Z" fill="black"/>
<path d="M90.4456 8.4758C85.9727 8.4758 82.8005 11.6936 82.8005 16.2323C82.8005 20.7264 85.9727 23.8997 90.4902 23.8997C95.0288 23.8997 98.201 20.7264 98.201 16.2981C98.201 11.7371 94.9408 8.4758 90.4456 8.4758ZM90.4902 20.528C88.242 20.528 86.8543 18.8539 86.8543 16.2535C86.8543 13.6097 88.2643 11.8029 90.4902 11.8029C92.7372 11.8029 94.1472 13.5874 94.1472 16.2535C94.1472 18.8761 92.7595 20.528 90.4902 20.528Z" fill="black"/>
<path d="M74.5189 8.48004C72.6866 8.48004 71.3064 9.10599 69.9261 10.6581H69.4731C68.5458 9.25665 67.0329 8.48004 65.3354 8.48004C64.4879 8.47176 63.6505 8.6649 62.8922 9.04358C62.134 9.42226 61.4765 9.97563 60.9739 10.6581H60.5209L60.4986 10.6369V8.78241H56.7069V23.5761H60.8042V15.9628C60.8042 13.5046 61.8397 12.0596 63.6295 12.0596C65.2898 12.0596 66.3677 13.2893 66.3677 15.165V23.5761H70.4863V15.9628C70.4863 13.5227 71.5217 12.0596 73.3338 12.0596C74.9719 12.0596 76.0286 13.2893 76.0286 15.1873V23.5761H80.1482V14.6907C80.1482 10.8311 78.0772 8.48004 74.5189 8.48004Z" fill="black"/>
<path d="M142.029 18.4454H141.736C141.736 18.1823 139.95 13.4972 138.779 10.5945L138.046 8.77923H133.918L139.775 23.6249L137.467 29.2818H141.567L150 8.78453H145.87L145.196 10.3367L142.912 15.9883C142.268 17.5669 142.004 18.299 142.029 18.4454Z" fill="black"/>
<path d="M109.565 8.48004C107.731 8.48004 106.157 9.27786 105.1 10.7016H104.668L104.626 10.6804V8.78241H100.832V23.5761H104.929V16.0063C104.929 13.5916 106.096 12.0809 108.014 12.0809C109.803 12.0809 111.119 13.4176 111.119 15.531V23.575H115.216V14.6483C115.216 11.0252 112.844 8.48004 109.565 8.48004Z" fill="black"/>
<path d="M28.8797 0C20.0272 0 12.9137 7.1613 12.9137 15.914C12.9137 24.7388 20.0973 31.828 28.8775 31.828C37.6578 31.828 44.8478 24.6667 44.8478 15.914C44.8478 7.1613 37.6599 0 28.8797 0ZM28.8797 21.8457C25.6141 21.8457 22.9299 19.1689 22.9299 15.914C22.9299 12.6591 25.6141 9.98232 28.8797 9.98232C32.1452 9.98232 34.8304 12.6591 34.8304 15.914C34.7572 19.1689 32.1452 21.8457 28.8797 21.8457Z" fill="#8B3FFD"/>
<path d="M12.9137 4.62355V27.771H7.25678L0 4.62355H12.9137Z" fill="#8B3FFD"/>
</svg>
